<?xml version="1.0" encoding="utf-8"?>
<!-- Generator: Adobe Illustrator 28.0.0, SVG Export Plug-In . SVG Version: 6.00 Build 0)  -->
<svg version="1.1" id="Layer_1" xmlns="http://www.w3.org/2000/svg" xmlns:xlink="http://www.w3.org/1999/xlink" x="0px" y="0px"
	 viewBox="0 0 1123.41 1123.41" enable-background="new 0 0 1123.41 1123.41" xml:space="preserve">
<path fill-rule="evenodd" clip-rule="evenodd" fill="#FFFFFF" d="M1121.41,562.705c0,309.661-251.044,560.705-560.705,560.705
	S0,872.366,0,562.705S251.044,2,560.705,2S1121.41,253.043,1121.41,562.705"/>
<path fill="#129901" d="M939.715,563.193c0,209.32-169.69,379.009-379.01,379.009c-209.32,0-379.009-169.689-379.009-379.009
	s169.689-379.01,379.009-379.01C770.025,184.183,939.715,353.873,939.715,563.193"/>
<path d="M604.79,519.277l0.84,2.68c4.48,14.289,8.985,21.49,20.535,30.983c5.055,4.155,10.152,8.069,15.855,11.299
	c6.27,3.551,13.13,6.33,19.816,8.989c14.76,5.869,29.325,13.369,42.381,22.44c10.151,7.052,20.981,16.171,27.861,26.548
	c3.173,4.786,5.918,10.11,8.415,15.276c3.176,6.569,6.076,13.298,8.786,20.072c2.884,7.207,5.565,14.512,8.004,21.882
	c2.246,6.789,4.32,13.69,5.988,20.645c2.188,9.122,4.656,18.78,9.113,27.095c4.364,8.14,10.774,15.183,17.088,21.847
	c12.782,13.492,27.572,25.104,45.403,31.016c2.974,0.986,9.836,4.413,12.776,5.549c-34.276,44.065-79.413,80.424-130.353,104.625
	c-1.059-1.036-4.978-5.077-5.924-6.208c-0.88-1.051-1.896-2.08-2.848-3.067c-1.714-1.775-3.454-3.526-5.203-5.267
	c-4.677-4.659-9.422-9.257-14.212-13.8l-17.978-17.049l-18.711-5.263c-7.218-2.03-14.59-3.779-21.896-5.46
	c-8.43-1.94-16.913-3.776-25.415-5.376c-6.995-1.316-13.981-2.721-20.938-4.226c-2.329-0.504-4.66-1.017-6.978-1.568
	c-1.046-0.248-2.823-0.604-3.77-1.077l-1.23-0.615v4.383h-11.597v-5.825l-1.023-0.302c-1.286-0.379-2.59-0.747-3.891-1.072
	c-5.954-1.488-11.98-3.454-17.762-5.511c-2.719-0.967-5.437-1.981-8.101-3.091c-1.766-0.736-3.864-1.614-5.468-2.661
	c-11.701-7.383-16.456-24.677-9.335-36.714c1.768-3.142,4.103-6.448,6.315-9.299l0.045-0.057c0.242-0.299,0.545-0.675,0.864-1.083
	c-13.712-4.258-24.851-18.458-24.851-32.935c0-4.869,1.104-8.769,4.183-12.602c3.614-4.5,9.589-8.419,14.414-11.51l1.35-0.864
	l-1.514-0.464c-8.993-2.754-17.118-5.534-23.222-13.025c-4.896-6.009-7.718-11.085-8.926-18.754
	c-1.189-7.547,0.352-12.695,4.595-18.994c2.444-3.628,5.581-7.278,8.647-10.403c1.252-1.276,2.59-2.574,3.993-3.689l-2.078-4.914
	c-4.937-11.677-10.902-28.555-4.517-40.76c3.073-5.874,10.813-13.114,17.201-15.014l0.072-0.021l0.073-0.018
	c2.278-0.576,5.199-0.826,7.546-1.08c3.889-0.421,7.794-0.759,11.695-1.039c4.134-0.297,8.269-0.637,12.394-1.032
	c2.953-0.283,6.044-0.556,8.969-1.044l0.052-0.009l0.052-0.007c1.708-0.234,3.415-0.48,5.122-0.722
	c0.926-0.131,2.181-0.368,3.104-0.368V441.002c1.578,0.107,3.281,0.099,5.265-0.009c2.177-0.117,4.269-0.416,6.331-0.929v78.06
	c0.391-4.385,1.04-8.68,2.142-10.75c2.599-4.885,8.406-8.593,13.974-8.593c5.352,0,11.976,3.392,13.077,9.066
	c0.117,0.603,0.283,1.25,0.47,1.907"/>
<path fill="#005612" d="M601.699,509.752l1.225-2.022c1.87-3.742,2.812-7.163,2.908-10.697c0.112-8.63,1.982-22.347,3.743-27.96
	c1.358-4.044,3.74-7.163,10.711-14.13c8.409-8.411,17.249-15.379,18.287-14.438c0.416,0.513-0.318,4.047-3.532,15.795
	c-2.398,8.617-7.691,20.16-12.789,27.531c-5.709,8.217-0.416,4.474,11.015-7.995l11.332-12.26l2.286-9.354
	c3.743-14.659,8.828-22.558,18.914-29.513c4.365-3.115,21.086-10.708,21.086-9.67c0,0.321-1.134,2.078-2.591,3.948
	c-1.357,1.87-4.265,7.067-6.343,11.639c-3.009,6.555-5.501,9.974-12.151,16.833c-4.684,4.685-8.104,8.521-7.69,8.521
	c0.416,0,4.877-2.494,9.977-5.5c5.084-2.908,10.599-6.136,12.26-7.065c1.761-0.941,6.027-5.82,9.449-10.919
	c11.748-17.137,19.743-23.691,33.156-27.431c7.993-2.177,23.164-4.156,23.164-3.006c0,0.512-3.836,4.156-8.521,8.313
	c-8.728,7.578-21.085,16.208-30.229,20.989c-6.651,3.535-3.535,4.047,6.538,1.041c4.268-1.248,9.67-2.815,11.957-3.327
	c3.006-0.83,7.067-3.74,15.062-11.125c13.509-12.471,19.439-16.515,27.959-19.122c6.857-2.174,13.605-2.699,13.605-1.134
	c0,0.413-4.156,4.876-9.241,9.766c-9.145,8.825-16.737,13.606-25.772,16.307c-7.48,2.286-5.194,3.436,5.197,2.606l9.561-0.737
	l6.234-5.914c18.385-17.154,26.282-20.896,44.267-20.896c5.61,0,10.391,0.416,10.695,0.944c0.624,1.038-7.897,6.859-15.588,10.807
	c-6.856,3.422-28.152,11.735-32.42,12.677c-2.382,0.512-3.215,1.037-2.495,1.76c0.733,0.734,3.852,0.734,9.671-0.098
	c4.671-0.625,10.185-1.15,12.151-1.15c2.702,0,5.101-1.137,8.937-4.044c2.91-2.286,8.312-5.612,12.055-7.482
	c5.818-2.911,7.8-3.436,14.034-3.327c4.044,0.099,9.146,0.625,11.431,1.249c2.286,0.513,6.33,1.662,9.144,2.287
	c2.7,0.72,4.877,1.662,4.877,2.078c0,0.832-2.286,1.552-12.677,4.044c-8.107,1.982-30.967,9.769-30.967,10.503
	c0,0.307,7.801,1.04,17.359,1.457c9.656,0.414,18.497,1.133,19.842,1.662c1.358,0.512,5.194,3.007,8.422,5.5
	c7.787,6.026,26.811,24.108,26.076,24.938c-0.304,0.32-4.78-0.096-9.864-0.928c-21.726-3.532-24.634-4.572-34.498-12.786
	c-8.521-7.067-11.751-9.036-16.42-10.602c-4.682-1.55-17.457-4.156-17.983-3.628c-0.208,0.209,4.989,3.836,11.431,8.105
	c8.091,5.349,20.434,15.062,26.794,20.699c2.3,2.051,3.826,3.561,4.074,4.129c0.208,0.624-0.526,0.832-1.566,0.416
	c-0.568-0.152-1.87-0.416-3.532-0.707c-1.662-0.304-3.687-0.651-5.708-0.955c-9.145-1.456-20.061-5.5-24.94-9.352
	c-4.57-3.63-14.243-14.341-17.871-19.839c-2.399-3.644-3.118-4.06-7.066-4.06c-2.399,0-8.009-0.305-12.472-0.721
	c-9.142-0.737-10.084,0.622-1.869,2.799c10.185,2.702,24.414,11.54,32.423,20.159c2.174,2.396,2.286,2.7,0.72,3.324
	c-2.287,0.942-11.322-0.304-17.457-2.287c-5.501-1.757-17.458-9.241-28.266-17.761l-7.065-5.513l-8.521,0.624
	c-7.275,0.526-20.463,3.019-28.472,5.194c-4.988,1.456,0.318,2.398,9.67,1.774c6.747-0.417,11.319-0.113,16.417,1.135
	c7.995,1.87,26.186,9.975,24.941,11.016c-0.417,0.416-3.853,1.245-7.592,1.87c-19.84,3.435-30.134,2.603-47.898-4.047
	c-12.677-4.778-14.243-4.778-25.146-0.318c-8.937,3.532-19.535,9.769-18.913,10.919c0.416,0.513,1.761,0.305,3.422-0.528
	c5.821-2.908,17.874-5.085,24.428-4.365c9.241,0.942,24.62,3.853,24.62,4.685c0,1.136-19.119,8.409-26.493,9.975
	c-9.254,1.968-13.922,1.968-24.108,0c-11.54-2.188-12.164-2.079-20.157,3.326c-8.424,5.61-24.22,19.007-23.387,19.743
	c0.317,0.304,3.531-1.358,7.067-3.644c12.786-8.315,17.662-9.977,30.451-10.393l11.431-0.305l-8.105,7.995
	c-11.223,10.917-22.763,15.795-41.565,17.666c-8.315,0.829-12.884,3.852-18.402,12.165c-0.205,0.318-0.413,0.637-0.594,0.928
	c-0.158,0.253-0.307,0.499-0.448,0.74"/>
<line x1="601.856" y1="509.752" x2="601.932" y2="509.608"/>
<path d="M55.559,673.091l55.992-13.394l4.314,18.029c1.633,6.831,2.418,11.351,2.356,13.56c-0.079,3.391-1.266,6.496-3.565,9.322
	c-2.302,2.823-5.678,4.768-10.134,5.836c-3.437,0.82-6.477,0.891-9.115,0.212c-2.641-0.679-4.855-1.815-6.648-3.405
	c-1.796-1.592-3.144-3.319-4.051-5.192c-1.177-2.554-2.372-6.374-3.59-11.46l-1.752-7.325l-21.121,5.051L55.559,673.091z
	 M86.103,772.127l-4.126-11.87l10.712-9.012l-7.513-21.602l-13.902-0.166l-4.024-11.574l61.698,2.144l4.013,11.536L86.103,772.127z
	 M100.634,744.559l17.591-14.462l-22.718-0.283L100.634,744.559z M94.868,789.714l42.541-21.871l-7.76-15.098l8.662-4.453
	l20.787,40.438l-8.662,4.453l-7.745-15.065L100.15,799.99L94.868,789.714z M110.544,821.247l49.472-29.449l12.438,20.89
	c3.127,5.255,4.956,9.336,5.483,12.248c0.529,2.91,0.084,5.758-1.337,8.539c-1.421,2.785-3.594,5.048-6.517,6.787
	c-3.714,2.209-7.426,2.95-11.134,2.22c-3.709-0.729-7.162-3.062-10.36-7.002c0.017,2.896-0.312,5.49-0.989,7.786
	c-0.674,2.294-2.23,5.771-4.667,10.43l-6.078,11.747l-7.067-11.869l6.494-13.585c2.33-4.842,3.716-8.025,4.156-9.561
	c0.443-1.535,0.538-2.94,0.283-4.211c-0.256-1.271-1.06-3.048-2.418-5.328l-1.195-2.01l-20.654,12.292L110.544,821.247z
	 M145.003,814.177l4.371,7.344c2.836,4.763,4.806,7.615,5.917,8.561c1.112,0.943,2.361,1.457,3.75,1.538
	c1.389,0.081,2.826-0.321,4.311-1.204c1.666-0.992,2.744-2.233,3.245-3.725c0.497-1.494,0.402-3.125-0.286-4.896
	c-0.367-0.872-1.747-3.32-4.143-7.343l-4.61-7.746L145.003,814.177z M141.488,868.469l46.98-33.282l6.679,9.427l-46.981,33.279
	L141.488,868.469z M174.144,868.087c4.483-3.777,8.808-6.284,12.975-7.512c3.082-0.897,6.238-1.234,9.471-1.013
	c3.231,0.219,6.14,0.991,8.73,2.314c3.455,1.747,6.686,4.405,9.688,7.963c5.431,6.45,7.765,13.302,6.999,20.564
	c-0.764,7.259-4.73,13.91-11.898,19.95c-7.107,5.989-14.288,8.754-21.536,8.295c-7.252-0.459-13.583-3.901-18.997-10.327
	c-5.483-6.507-7.843-13.362-7.085-20.57C163.252,880.546,167.134,873.993,174.144,868.087z M182.112,876.938
	c-4.986,4.2-7.803,8.529-8.447,12.985c-0.644,4.455,0.516,8.444,3.483,11.967c2.967,3.521,6.679,5.336,11.134,5.445
	c4.456,0.106,9.238-1.992,14.342-6.292c5.045-4.252,7.885-8.523,8.515-12.813c0.631-4.291-0.587-8.257-3.657-11.897
	c-3.067-3.641-6.797-5.518-11.185-5.63C191.906,870.591,187.176,872.67,182.112,876.938z M205.184,942.54l32.931-34.692
	l-12.313-11.688l6.705-7.064l32.978,31.301l-6.706,7.064l-12.286-11.661l-32.932,34.695L205.184,942.54z M231.768,966.056
	l36.61-44.437l8.914,7.346l-36.607,44.438L231.768,966.056z M290.738,984.238l7.14,9.34c-5.007,4.17-10.021,6.363-15.041,6.578
	c-5.021,0.215-10.047-1.435-15.082-4.951c-6.23-4.347-9.857-10.063-10.878-17.146c-1.022-7.082,1.062-14.339,6.249-21.765
	c5.483-7.859,11.759-12.554,18.828-14.086c7.067-1.533,13.883-0.005,20.456,4.581c5.739,4.007,9.21,8.968,10.411,14.883
	c0.723,3.507,0.302,7.523-1.268,12.046l-10.952-4.293c1.155-2.833,1.345-5.572,0.576-8.218c-0.772-2.646-2.415-4.849-4.933-6.604
	c-3.478-2.429-7.175-3.144-11.093-2.141c-3.921,1-7.844,4.311-11.77,9.935c-4.165,5.969-6.067,10.965-5.703,14.986
	c0.367,4.024,2.255,7.227,5.67,9.61c2.516,1.757,5.244,2.464,8.18,2.118C284.464,988.766,287.534,987.142,290.738,984.238z
	 M364.728,985.512l10.773,4.168l-11.251,29.081c-1.787,4.616-2.812,7.659-3.073,9.129c-0.391,2.378,0.025,4.568,1.247,6.57
	c1.217,2,3.334,3.584,6.341,4.749c3.059,1.182,5.607,1.446,7.645,0.788c2.041-0.655,3.573-1.839,4.597-3.548
	c1.024-1.709,2.358-4.689,4.003-8.938l11.492-29.705l10.775,4.17l-10.913,28.204c-2.494,6.445-4.548,10.887-6.159,13.321
	c-1.614,2.437-3.557,4.268-5.831,5.494c-2.271,1.225-4.931,1.874-7.971,1.948c-3.041,0.073-6.672-0.709-10.895-2.342
	c-5.094-1.972-8.729-4.059-10.905-6.263c-2.173-2.204-3.66-4.546-4.456-7.032c-0.796-2.483-1.035-4.858-0.717-7.121
	c0.486-3.347,1.891-8.026,4.217-14.033L364.728,985.512z M397.474,1059.944l14.579-55.699l10.873,2.847l12.919,43.126l9.735-37.197
	l10.381,2.717l-14.576,55.699l-11.216-2.934l-12.804-42.164l-9.507,36.322L397.474,1059.944z M452.149,1074.589l11.761-56.359
	l11.307,2.361l-11.762,56.359L452.149,1074.589z M474.853,1050.466c0.703-5.823,2.16-10.604,4.368-14.345
	c1.642-2.755,3.722-5.154,6.236-7.2c2.513-2.043,5.167-3.461,7.963-4.257c3.722-1.081,7.893-1.342,12.516-0.783
	c8.371,1.014,14.75,4.434,19.143,10.265c4.393,5.833,6.025,13.403,4.901,22.705c-1.115,9.229-4.48,16.146-10.096,20.757
	c-5.616,4.608-12.593,6.409-20.936,5.401c-8.447-1.021-14.851-4.429-19.209-10.215
	C475.383,1067.007,473.753,1059.565,474.853,1050.466z M486.718,1051.504c-0.783,6.472,0.109,11.558,2.675,15.258
	c2.568,3.698,6.138,5.826,10.711,6.377c4.57,0.552,8.523-0.649,11.854-3.611c3.333-2.958,5.401-7.754,6.202-14.38
	c0.791-6.551-0.046-11.609-2.51-15.179c-2.464-3.567-6.062-5.638-10.789-6.208c-4.725-0.571-8.732,0.598-12.019,3.513
	C489.554,1040.182,487.514,1044.929,486.718,1051.504z M536.575,1085.131l0.187-57.574l11.24,0.035l23.291,38.525l-1.168-38.579
	l10.732,0.035l1.106,57.704l-11.591-0.036l-22.944-37.621l-0.122,37.545L536.575,1085.131z M637.327,1051.538
	c-1.217-5.735-1.385-10.732-0.505-14.987c0.663-3.138,1.855-6.081,3.573-8.827c1.72-2.747,3.771-4.948,6.159-6.605
	c3.174-2.225,7.037-3.823,11.593-4.788c8.246-1.75,15.391-0.576,21.434,3.521c6.043,4.1,10.037,10.734,11.979,19.904
	c1.929,9.091,0.981,16.728-2.842,22.904c-3.823,6.178-9.846,10.137-18.067,11.881c-8.321,1.766-15.481,0.614-21.477-3.456
	C643.176,1067.018,639.229,1060.504,637.327,1051.538z M648.89,1048.685c1.353,6.376,3.842,10.9,7.466,13.571
	c3.624,2.671,7.691,3.529,12.196,2.573c4.505-0.954,7.854-3.372,10.052-7.252c2.195-3.877,2.6-9.08,1.215-15.614
	c-1.369-6.452-3.796-10.968-7.282-13.549c-3.486-2.578-7.558-3.375-12.215-2.389c-4.66,0.989-8.072,3.391-10.24,7.211
	C647.912,1037.057,647.515,1042.205,648.89,1048.685z M706.41,1063.804l-16.378-55.196l37.602-11.156l2.771,9.338l-26.528,7.871
	l3.877,13.063l22.898-6.793l2.771,9.336l-22.898,6.795l6.958,23.455L706.41,1063.804z M801.405,1026.205l-29.915-49.192l9.87-6.002
	l13.286,21.844l6.653-33.972l13.273-8.072l-6.754,30.356l37.669,18.23l-12.769,7.765l-27.479-14.913l-3.003,13.087l9.039,14.867
	L801.405,1026.205z M816.329,950.225l9.295-6.86l18.515,25.091c2.94,3.98,4.959,6.48,6.059,7.487
	c1.799,1.603,3.869,2.424,6.214,2.47c2.342,0.044,4.815-0.894,7.409-2.81c2.638-1.948,4.227-3.956,4.765-6.031
	c0.541-2.073,0.362-3.999-0.532-5.782c-0.894-1.78-2.692-4.505-5.399-8.169l-18.912-25.626l9.297-6.86l17.956,24.333
	c4.103,5.561,6.752,9.674,7.945,12.342c1.192,2.665,1.695,5.287,1.51,7.865c-0.185,2.576-1.06,5.168-2.63,7.773
	c-1.57,2.605-4.176,5.252-7.816,7.942c-4.396,3.244-8.107,5.192-11.134,5.847c-3.027,0.658-5.801,0.655-8.324-0.005
	c-2.521-0.66-4.654-1.731-6.396-3.215c-2.564-2.203-5.759-5.898-9.585-11.079L816.329,950.225z M896.224,961.776l-39.33-42.043
	l17.755-16.611c4.464-4.176,8.064-6.833,10.794-7.971c2.728-1.138,5.605-1.31,8.626-0.517c3.024,0.794,5.697,2.434,8.023,4.918
	c2.951,3.154,4.467,6.623,4.545,10.403c0.082,3.779-1.462,7.653-4.629,11.617c2.826-0.635,5.431-0.869,7.816-0.698
	c2.388,0.171,6.115,0.948,11.188,2.333l12.775,3.429l-10.087,9.439l-14.658-3.442c-5.224-1.245-8.634-1.919-10.229-2.022
	c-1.592-0.103-2.983,0.103-4.173,0.623c-1.187,0.521-2.749,1.687-4.689,3.5l-1.709,1.6l16.418,17.554L896.224,961.776z
	 M881.964,929.622l6.24-5.838c4.049-3.788,6.415-6.322,7.099-7.608c0.685-1.288,0.921-2.616,0.704-3.994
	c-0.217-1.372-0.916-2.692-2.097-3.953c-1.323-1.415-2.769-2.206-4.331-2.374c-1.565-0.166-3.138,0.274-4.722,1.323
	c-0.772,0.546-2.869,2.415-6.29,5.616l-6.582,6.16L881.964,929.622z M893.93,884.681l13.647-16.111
	c3.078-3.633,5.706-6.167,7.879-7.599c2.929-1.918,6.135-2.966,9.621-3.154c3.486-0.185,7.034,0.438,10.647,1.861
	c3.614,1.426,7.479,3.879,11.596,7.365c3.616,3.065,6.352,6.151,8.213,9.263c2.271,3.798,3.537,7.547,3.801,11.25
	c0.204,2.796-0.377,5.852-1.741,9.164c-1.03,2.47-2.923,5.331-5.681,8.589l-14.05,16.587L893.93,884.681z M908.83,882.159
	l29.097,24.651l5.575-6.583c2.084-2.462,3.45-4.355,4.094-5.684c0.854-1.733,1.248-3.437,1.188-5.108
	c-0.06-1.67-0.823-3.637-2.285-5.901c-1.464-2.26-3.893-4.83-7.29-7.708c-3.396-2.877-6.254-4.79-8.577-5.733
	c-2.323-0.943-4.448-1.312-6.374-1.103c-1.929,0.209-3.768,0.984-5.523,2.328c-1.323,0.994-3.508,3.288-6.551,6.88L908.83,882.159z
	 M974.21,877.66l-46.742-33.618l6.746-9.379l46.742,33.618L974.21,877.66z M970.294,851.833l4.926-10.163
	c3.592,1.404,6.686,1.687,9.283,0.85c2.598-0.834,4.815-2.753,6.646-5.749c1.94-3.173,2.728-5.977,2.361-8.414
	c-0.366-2.438-1.456-4.209-3.266-5.315c-1.163-0.709-2.359-0.975-3.586-0.796c-1.231,0.177-2.663,0.927-4.296,2.244
	c-1.108,0.907-3.431,3.102-6.968,6.58c-4.548,4.478-8.436,7.195-11.658,8.15c-4.535,1.346-8.746,0.829-12.634-1.545
	c-2.502-1.53-4.412-3.668-5.728-6.406c-1.315-2.744-1.733-5.787-1.249-9.137c0.48-3.35,1.869-6.901,4.165-10.65
	c3.746-6.126,7.917-9.912,12.511-11.356c4.597-1.445,9.199-0.864,13.807,1.738l-5.591,10.121c-2.782-1.119-5.151-1.323-7.104-0.614
	c-1.954,0.712-3.779,2.456-5.475,5.23c-1.752,2.863-2.529,5.466-2.336,7.811c0.122,1.508,0.817,2.652,2.092,3.429
	c1.163,0.709,2.453,0.831,3.877,0.358c1.81-0.6,4.752-2.95,8.822-7.05c4.069-4.097,7.417-6.923,10.039-8.475
	c2.621-1.553,5.385-2.336,8.289-2.344c2.907-0.008,5.913,0.94,9.018,2.837c2.815,1.723,4.974,4.111,6.482,7.167
	c1.505,3.054,1.988,6.368,1.446,9.941c-0.541,3.572-2.109,7.477-4.7,11.718c-3.774,6.17-8.107,10.033-13.001,11.584
	C981.574,855.132,976.182,854.551,970.294,851.833z M1020.626,801.405l-42.84-21.281l-7.554,15.203l-8.721-4.334l19.206-37.996
	l8.724,4.332l-6.515,12.448l42.84,21.281L1020.626,801.405z M1053.732,722.017l-4.323,11.799l-13.998,0.192l-7.865,21.477
	l10.656,8.93l-4.214,11.509l-46.399-40.727l4.203-11.47L1053.732,722.017z M1025.028,734.156l-22.773,0.054l17.404,14.604
	L1025.028,734.156z M1056.283,714.022l-56.281-12.139l2.369-10.987l42.522-14.786l-37.585-8.104l2.263-10.49l56.281,12.137
	l-2.443,11.329l-41.566,14.633l36.702,7.915L1056.283,714.022z M148.988,654.109l27.066-4.727l1.533,8.769
	c0.578,3.323,0.823,5.513,0.728,6.57c-0.135,1.622-0.793,3.073-1.969,4.357c-1.177,1.282-2.843,2.114-4.997,2.489
	c-1.66,0.29-3.111,0.233-4.35-0.172c-1.236-0.408-2.26-1.016-3.067-1.834c-0.809-0.815-1.401-1.684-1.78-2.609
	c-0.486-1.26-0.945-3.127-1.377-5.602l-0.622-3.562l-10.208,1.785L148.988,654.109z M172.429,655.647l-7.68,1.342l0.524,2.991
	c0.375,2.152,0.768,3.567,1.179,4.244c0.408,0.676,0.951,1.168,1.627,1.475c0.674,0.307,1.41,0.391,2.212,0.253
	c0.983-0.174,1.746-0.603,2.285-1.296c0.538-0.69,0.812-1.492,0.817-2.404c0.008-0.674-0.16-1.997-0.502-3.967L172.429,655.647z
	 M163.365,688.595l0.622,5.285c-2.038-0.108-3.742-0.723-5.113-1.84c-1.372-1.116-2.363-2.725-2.975-4.822
	c-0.967-3.323-0.598-6.099,1.109-8.327c1.375-1.766,3.385-3.034,6.037-3.806c3.167-0.921,5.888-0.815,8.164,0.318
	c2.274,1.136,3.779,2.967,4.518,5.499c0.826,2.842,0.541,5.36-0.859,7.548c-1.399,2.189-4.048,3.815-7.941,4.869l-3.687-12.667
	c-1.488,0.47-2.537,1.22-3.144,2.241c-0.608,1.022-0.742,2.117-0.404,3.279c0.231,0.791,0.641,1.394,1.231,1.81
	C161.512,688.394,162.324,688.598,163.365,688.595z M168.56,687.398c1.454-0.462,2.456-1.166,3.008-2.106
	c0.552-0.939,0.679-1.929,0.378-2.958c-0.321-1.106-0.987-1.899-1.999-2.386c-1.013-0.486-2.21-0.521-3.584-0.109L168.56,687.398z
	 M174.855,699.969l-0.758-4.796c1.991-0.128,3.64,0.277,4.947,1.212c1.304,0.935,2.383,2.619,3.235,5.062
	c0.775,2.219,1.086,3.961,0.94,5.23c-0.147,1.269-0.546,2.266-1.198,2.988c-0.655,0.725-2.062,1.465-4.219,2.217l-5.822,1.972
	c-1.652,0.576-2.842,1.081-3.57,1.513c-0.731,0.434-1.467,1.024-2.212,1.774l-1.714-4.92c0.286-0.245,0.718-0.576,1.302-0.989
	c0.267-0.185,0.441-0.313,0.522-0.38c-1.122-0.562-2.059-1.255-2.81-2.079c-0.75-0.823-1.315-1.782-1.701-2.879
	c-0.673-1.935-0.681-3.644-0.018-5.121c0.66-1.483,1.793-2.503,3.395-3.062c1.063-0.372,2.098-0.448,3.106-0.231
	c1.01,0.217,1.894,0.706,2.657,1.465c0.761,0.76,1.606,1.943,2.538,3.551c1.247,2.171,2.217,3.641,2.907,4.404l0.494-0.171
	c0.956-0.334,1.554-0.81,1.795-1.424c0.245-0.611,0.136-1.573-0.32-2.883c-0.31-0.886-0.723-1.516-1.245-1.888
	C176.586,700.159,175.836,699.971,174.855,699.969z M173.143,708.029c-0.434-0.562-1.041-1.483-1.817-2.76
	c-0.774-1.277-1.38-2.079-1.809-2.404c-0.687-0.489-1.385-0.608-2.092-0.361c-0.696,0.242-1.208,0.711-1.532,1.407
	c-0.329,0.695-0.35,1.445-0.071,2.247c0.313,0.897,0.905,1.649,1.779,2.257c0.658,0.446,1.345,0.65,2.06,0.612
	c0.47-0.019,1.301-0.237,2.491-0.653L173.143,708.029z M186.797,731.505l-2.833-4.451c0.893-0.554,1.467-1.217,1.72-1.989
	c0.25-0.772,0.19-1.613-0.185-2.527c-0.497-1.215-1.312-2.01-2.445-2.391c-1.136-0.38-2.684-0.169-4.649,0.638
	c-2.187,0.893-3.581,1.891-4.181,2.993c-0.603,1.104-0.649,2.275-0.144,3.51c0.378,0.926,0.951,1.576,1.72,1.951
	c0.766,0.375,1.842,0.421,3.224,0.139l1.141,5.122c-2.399,0.402-4.45,0.125-6.148-0.826c-1.698-0.954-3.032-2.614-4.003-4.986
	c-1.103-2.692-1.13-5.189-0.087-7.485c1.047-2.298,3.071-4.058,6.078-5.289c3.04-1.245,5.738-1.41,8.091-0.495
	c2.35,0.913,4.086,2.742,5.208,5.483c0.916,2.241,1.163,4.224,0.74,5.942C189.621,728.566,188.539,730.12,186.797,731.505z
	 M187.087,749.298l1.443,5.122c-2.026,0.212-3.806-0.128-5.339-1.014c-1.53-0.888-2.76-2.32-3.695-4.298
	c-1.475-3.13-1.546-5.928-0.209-8.395c1.078-1.962,2.866-3.529,5.363-4.706c2.983-1.407,5.686-1.73,8.113-0.969
	c2.423,0.763,4.199,2.337,5.322,4.722c1.264,2.679,1.378,5.208,0.339,7.588c-1.037,2.383-3.398,4.402-7.08,6.057l-5.63-11.933
	c-1.396,0.701-2.314,1.602-2.751,2.708c-0.44,1.103-0.4,2.203,0.117,3.301c0.353,0.745,0.85,1.277,1.496,1.593
	C185.223,749.391,186.06,749.464,187.087,749.298z M192.029,747.299c1.361-0.685,2.241-1.533,2.641-2.552
	c0.397-1.016,0.367-2.01-0.092-2.98c-0.489-1.04-1.274-1.72-2.35-2.043c-1.076-0.32-2.263-0.168-3.556,0.457L192.029,747.299z
	 M228.003,779.018l5.554,8.482c1.252,1.913,2.059,3.466,2.424,4.662c0.486,1.609,0.537,3.225,0.152,4.849
	c-0.383,1.628-1.147,3.171-2.287,4.635c-1.138,1.462-2.785,2.899-4.94,4.309c-1.891,1.239-3.676,2.07-5.355,2.497
	c-2.049,0.519-3.939,0.587-5.671,0.196c-1.311-0.291-2.635-0.978-3.972-2.059c-0.994-0.812-2.052-2.076-3.174-3.79l-5.719-8.733
	L228.003,779.018z M227.153,786.204l-15.226,9.968l2.268,3.464c0.847,1.296,1.535,2.185,2.056,2.663
	c0.683,0.63,1.41,1.046,2.185,1.249c0.774,0.201,1.779,0.123,3.013-0.239c1.236-0.361,2.742-1.122,4.518-2.285
	c1.777-1.163,3.038-2.214,3.784-3.151c0.744-0.935,1.201-1.858,1.364-2.774c0.162-0.913,0.054-1.864-0.324-2.856
	c-0.28-0.744-1.038-2.062-2.274-3.953L227.153,786.204z M231.846,823.411l2.424,4.736c-1.945,0.608-3.757,0.628-5.431,0.06
	c-1.676-0.568-3.168-1.728-4.472-3.484c-2.067-2.776-2.689-5.507-1.866-8.189c0.671-2.133,2.113-4.026,4.328-5.673
	c2.646-1.969,5.232-2.82,7.762-2.551c2.526,0.269,4.578,1.458,6.151,3.575c1.769,2.375,2.377,4.833,1.831,7.374
	c-0.546,2.54-2.461,4.985-5.743,7.332l-7.876-10.585c-1.231,0.964-1.951,2.029-2.163,3.198c-0.212,1.172,0.044,2.242,0.766,3.214
	c0.492,0.663,1.087,1.085,1.785,1.266C230.037,823.867,230.871,823.777,231.846,823.411z M236.293,820.474
	c1.202-0.94,1.897-1.948,2.084-3.021c0.19-1.076-0.038-2.043-0.679-2.907c-0.685-0.921-1.586-1.432-2.705-1.535
	c-1.12-0.103-2.253,0.283-3.397,1.149L236.293,820.474z M247.585,821.357l3.155,3.689l-2.065,1.767
	c2.733-0.052,4.88,0.834,6.439,2.657c0.826,0.967,1.344,1.98,1.556,3.032c0.209,1.054,0.106,2.152-0.313,3.298
	c1.375-0.024,2.592,0.177,3.649,0.606c1.057,0.427,1.959,1.079,2.706,1.951c0.948,1.113,1.526,2.244,1.733,3.402
	c0.206,1.155,0.035,2.296-0.514,3.42c-0.411,0.829-1.337,1.858-2.78,3.095l-9.672,8.267l-3.423-4.002l8.648-7.393
	c1.499-1.282,2.35-2.249,2.551-2.896c0.253-0.858,0.052-1.674-0.605-2.442c-0.478-0.56-1.1-0.941-1.864-1.142
	c-0.766-0.203-1.57-0.13-2.418,0.217c-0.845,0.345-1.981,1.125-3.407,2.345l-7.262,6.21l-3.423-4.002l8.29-7.088
	c1.473-1.258,2.36-2.141,2.668-2.652c0.304-0.505,0.434-1,0.386-1.475c-0.046-0.478-0.288-0.975-0.729-1.488
	c-0.527-0.617-1.168-1.03-1.921-1.24c-0.755-0.209-1.537-0.152-2.347,0.169c-0.81,0.323-1.94,1.106-3.393,2.348l-7.349,6.284
	l-3.423-4.001L247.585,821.357z M261.35,852.035c1.244-1.228,2.755-2.108,4.526-2.643c1.768-0.533,3.516-0.541,5.241-0.019
	c1.723,0.521,3.268,1.475,4.635,2.863c2.114,2.146,3.149,4.589,3.106,7.333c-0.044,2.744-1.128,5.162-3.256,7.256
	c-2.146,2.114-4.605,3.174-7.379,3.179c-2.774,0.005-5.198-1.044-7.265-3.144c-1.28-1.299-2.209-2.828-2.783-4.586
	c-0.573-1.758-0.594-3.502-0.065-5.235C258.641,855.307,259.72,853.638,261.35,852.035z M264.936,856.078
	c-1.407,1.386-2.154,2.779-2.245,4.184c-0.089,1.405,0.345,2.595,1.31,3.573c0.964,0.981,2.149,1.432,3.548,1.361
	c1.402-0.074,2.815-0.812,4.238-2.214c1.388-1.369,2.13-2.753,2.226-4.152c0.095-1.4-0.34-2.589-1.305-3.567
	c-0.964-0.981-2.149-1.435-3.557-1.366C267.749,853.964,266.344,854.692,264.936,856.078z M293.685,878.588l-4.469-2.801
	c0.568-0.883,0.799-1.728,0.695-2.532c-0.106-0.807-0.522-1.54-1.253-2.204c-0.97-0.883-2.049-1.252-3.235-1.108
	c-1.187,0.147-2.495,1.002-3.926,2.573c-1.586,1.747-2.418,3.249-2.486,4.501c-0.068,1.255,0.391,2.331,1.38,3.233
	c0.739,0.671,1.536,1.013,2.391,1.022c0.853,0.008,1.842-0.414,2.97-1.264l3.233,4.133c-1.995,1.396-3.964,2.029-5.907,1.899
	c-1.942-0.131-3.861-1.057-5.754-2.78c-2.155-1.959-3.253-4.2-3.299-6.724c-0.044-2.521,1.026-4.986,3.214-7.387
	c2.212-2.429,4.575-3.739,7.091-3.923c2.516-0.185,4.871,0.717,7.061,2.711c1.794,1.63,2.866,3.315,3.222,5.048
	C294.97,874.72,294.66,876.589,293.685,878.588z M291.5,894.256l-4.048-3.365l12.726-15.302l3.761,3.125l-1.81,2.176
	c1.497-0.492,2.641-0.688,3.427-0.587c0.785,0.1,1.505,0.421,2.157,0.967c0.923,0.767,1.6,1.758,2.032,2.978l-4.189,2.489
	c-0.316-1.008-0.766-1.755-1.353-2.244c-0.565-0.47-1.177-0.715-1.828-0.731c-0.655-0.014-1.435,0.293-2.34,0.921
	c-0.905,0.63-2.44,2.244-4.602,4.846L291.5,894.256z M310.062,891.888l-3.288-3.576c1.593-1.206,3.19-1.782,4.792-1.725
	c1.606,0.057,3.437,0.866,5.497,2.429c1.872,1.421,3.097,2.7,3.676,3.836c0.578,1.138,0.798,2.19,0.654,3.154
	c-0.146,0.964-0.907,2.358-2.29,4.178l-3.76,4.863c-1.06,1.394-1.771,2.472-2.138,3.236c-0.37,0.763-0.655,1.663-0.862,2.7
	l-4.149-3.151c0.101-0.361,0.28-0.875,0.535-1.544c0.119-0.301,0.196-0.502,0.226-0.605c-1.244,0.152-2.41,0.095-3.489-0.177
	c-1.081-0.271-2.083-0.758-3.01-1.462c-1.63-1.238-2.581-2.657-2.85-4.257c-0.269-1.6,0.112-3.075,1.138-4.428
	c0.679-0.896,1.5-1.533,2.461-1.91c0.96-0.375,1.967-0.459,3.021-0.247c1.054,0.212,2.415,0.731,4.078,1.554
	c2.242,1.119,3.861,1.807,4.858,2.065l0.318-0.418c0.612-0.807,0.847-1.533,0.712-2.18c-0.139-0.644-0.761-1.388-1.864-2.225
	c-0.747-0.565-1.44-0.861-2.081-0.886C311.608,891.091,310.88,891.349,310.062,891.888z M313.091,899.552
	c-0.674-0.228-1.686-0.66-3.04-1.296c-1.353-0.633-2.299-0.967-2.84-1c-0.842-0.029-1.488,0.256-1.942,0.854
	c-0.446,0.59-0.612,1.264-0.5,2.021c0.114,0.761,0.507,1.396,1.187,1.912c0.755,0.574,1.666,0.873,2.731,0.894
	c0.793,0.008,1.478-0.201,2.054-0.628c0.38-0.277,0.953-0.916,1.714-1.92L313.091,899.552z M338.39,912.2l-4.82-2.141
	c0.437-0.956,0.546-1.826,0.331-2.605c-0.217-0.783-0.733-1.451-1.551-2.005c-1.085-0.739-2.207-0.95-3.361-0.641
	c-1.154,0.313-2.328,1.345-3.521,3.103c-1.326,1.953-1.935,3.556-1.826,4.808c0.109,1.25,0.715,2.252,1.82,3.002
	c0.829,0.562,1.666,0.788,2.511,0.674c0.847-0.112,1.768-0.668,2.763-1.666l3.784,3.633c-1.777,1.663-3.638,2.568-5.578,2.714
	c-1.942,0.147-3.975-0.5-6.091-1.94c-2.41-1.635-3.814-3.7-4.214-6.191c-0.399-2.491,0.316-5.081,2.139-7.768
	c1.848-2.717,4.002-4.347,6.468-4.885c2.464-0.539,4.921,0.025,7.371,1.687c2.006,1.361,3.307,2.877,3.905,4.542
	C339.115,908.19,339.075,910.081,338.39,912.2z M342.124,907.724l4.795,2.899l-3.239,14.557l11.289-9.688l4.668,2.823
	l-15.926,12.753l-2.867,2.315c-0.996,0.755-1.833,1.288-2.508,1.595c-0.676,0.307-1.345,0.484-2.008,0.53
	c-0.66,0.044-1.385-0.049-2.176-0.278c-0.788-0.228-1.611-0.603-2.464-1.119c-0.867-0.522-1.663-1.128-2.386-1.815l1.731-3.768
	c0.622,0.565,1.217,1.019,1.783,1.362c1.048,0.633,2.01,0.793,2.883,0.484c0.875-0.31,1.733-0.862,2.575-1.652L342.124,907.724z
	 M387.245,955.559L397.3,929.99l5.162,2.03l-3.958,10.063l10.117,3.977l3.956-10.063l5.162,2.032l-10.055,25.567l-5.162-2.03
	l4.399-11.179l-10.118-3.978l-4.396,11.18L387.245,955.559z M425.552,970.678l0.908-2.839c-1.014,0.793-2.177,1.299-3.489,1.524
	c-1.309,0.222-2.59,0.135-3.84-0.264c-1.274-0.408-2.328-1.052-3.16-1.934c-0.834-0.883-1.315-1.902-1.445-3.057
	c-0.128-1.158,0.092-2.627,0.662-4.412l3.832-11.998l5.017,1.603l-2.782,8.711c-0.853,2.668-1.282,4.331-1.291,4.99
	c-0.008,0.66,0.176,1.245,0.554,1.75c0.375,0.508,0.938,0.88,1.688,1.12c0.858,0.274,1.701,0.285,2.529,0.029
	c0.828-0.252,1.478-0.687,1.951-1.304s1.141-2.28,2.008-4.997l2.554-7.996l5.018,1.6l-6.056,18.961L425.552,970.678z
	 M440.31,955.026l4.682,1.282l-0.718,2.621c2.233-1.579,4.504-2.049,6.82-1.416c1.228,0.337,2.225,0.883,2.991,1.636
	c0.763,0.752,1.296,1.722,1.595,2.904c1.122-0.793,2.241-1.309,3.358-1.549c1.115-0.239,2.225-0.203,3.334,0.098
	c1.41,0.386,2.524,1,3.344,1.839c0.818,0.84,1.318,1.881,1.495,3.122c0.125,0.916-0.062,2.287-0.566,4.118l-3.361,12.272
	l-5.081-1.391l3.007-10.971c0.522-1.905,0.683-3.182,0.487-3.831c-0.272-0.85-0.896-1.41-1.872-1.679
	c-0.711-0.196-1.439-0.16-2.184,0.101c-0.747,0.263-1.372,0.774-1.88,1.535c-0.505,0.763-1.006,2.048-1.502,3.852l-2.524,9.222
	l-5.081-1.394l2.883-10.52c0.511-1.866,0.753-3.097,0.719-3.687c-0.032-0.592-0.201-1.073-0.507-1.442
	c-0.307-0.37-0.788-0.641-1.437-0.821c-0.782-0.214-1.547-0.198-2.288,0.055c-0.741,0.247-1.359,0.734-1.848,1.456
	c-0.489,0.72-0.986,2.002-1.492,3.847l-2.554,9.325l-5.081-1.391L440.31,955.026z M474.251,969.855l-4.518-1.784
	c0.905-1.783,2.093-2.997,3.562-3.643c1.467-0.65,3.47-0.72,6.005-0.212c2.304,0.461,3.964,1.081,4.983,1.853
	c1.016,0.769,1.67,1.622,1.961,2.551c0.29,0.932,0.212,2.518-0.24,4.76l-1.263,6.015c-0.345,1.717-0.517,2.996-0.514,3.844
	c0,0.848,0.135,1.786,0.402,2.804l-5.107-1.024c-0.068-0.37-0.13-0.91-0.19-1.625c-0.025-0.323-0.046-0.538-0.062-0.641
	c-1.055,0.679-2.127,1.133-3.217,1.361c-1.09,0.226-2.207,0.226-3.345-0.002c-2.01-0.405-3.483-1.266-4.42-2.589
	c-0.94-1.323-1.242-2.818-0.908-4.483c0.22-1.104,0.682-2.032,1.38-2.79c0.702-0.759,1.574-1.271,2.614-1.541
	c1.04-0.269,2.491-0.394,4.347-0.38c2.505,0.032,4.263-0.055,5.27-0.261l0.103-0.513c0.201-0.991,0.098-1.75-0.307-2.271
	c-0.407-0.519-1.288-0.916-2.649-1.19c-0.918-0.182-1.67-0.147-2.257,0.111C475.295,968.462,474.751,969.01,474.251,969.855z
	 M480.319,975.43c-0.707,0.087-1.807,0.142-3.302,0.16c-1.494,0.017-2.491,0.131-2.991,0.337c-0.768,0.34-1.227,0.88-1.375,1.617
	c-0.147,0.72-0.003,1.399,0.432,2.035c0.432,0.633,1.065,1.035,1.899,1.204c0.929,0.185,1.88,0.057,2.847-0.386
	c0.72-0.34,1.244-0.826,1.576-1.461c0.222-0.413,0.459-1.239,0.706-2.476L480.319,975.43z M507.034,988.833l-5.246-0.448
	l0.864-10.121c0.182-2.141,0.187-3.534,0.016-4.181c-0.169-0.649-0.492-1.168-0.967-1.56c-0.473-0.391-1.065-0.619-1.774-0.679
	c-0.911-0.076-1.747,0.103-2.51,0.538c-0.766,0.437-1.318,1.053-1.655,1.852c-0.336,0.799-0.6,2.307-0.79,4.524l-0.766,8.982
	l-5.246-0.448l1.692-19.833l4.874,0.418l-0.249,2.913c1.921-2.095,4.195-3.029,6.822-2.803c1.157,0.098,2.198,0.396,3.122,0.896
	c0.924,0.497,1.603,1.092,2.037,1.782c0.438,0.69,0.718,1.451,0.84,2.29c0.122,0.836,0.119,2.022-0.011,3.553L507.034,988.833z
	 M525.453,991.315l1.446-27.435l11.657,0.614c2.932,0.153,5.051,0.51,6.352,1.076c1.304,0.562,2.32,1.494,3.053,2.795
	c0.731,1.304,1.055,2.766,0.971,4.388c-0.109,2.057-0.804,3.725-2.084,5.002c-1.282,1.28-3.135,2.029-5.561,2.253
	c1.163,0.76,2.111,1.581,2.847,2.456c0.733,0.877,1.706,2.418,2.918,4.621l3.067,5.529l-6.623-0.347l-3.693-6.181
	c-1.309-2.209-2.211-3.605-2.705-4.19c-0.494-0.581-1.03-0.991-1.606-1.227c-0.576-0.237-1.499-0.389-2.774-0.454l-1.122-0.06
	l-0.603,11.454L525.453,991.315z M531.826,975.775l4.1,0.215c2.658,0.141,4.321,0.117,4.993-0.073
	c0.674-0.19,1.212-0.549,1.617-1.079c0.403-0.53,0.625-1.206,0.668-2.029c0.049-0.924-0.157-1.682-0.622-2.274
	c-0.462-0.595-1.138-0.991-2.03-1.187c-0.445-0.087-1.79-0.188-4.037-0.307l-4.323-0.226L531.826,975.775z M552.835,993.409
	l0.327-19.901l5.266,0.087l-0.327,19.899L552.835,993.409z M553.204,970.81l0.079-4.871l5.265,0.087l-0.079,4.871L553.204,970.81z
	 M563.536,994.379l6.04,0.514c0.125,0.696,0.372,1.168,0.745,1.418c0.511,0.356,1.304,0.516,2.38,0.478
	c1.372-0.049,2.396-0.293,3.068-0.729c0.45-0.29,0.785-0.747,1-1.369c0.147-0.443,0.201-1.249,0.158-2.423l-0.103-2.902
	c-1.497,2.203-3.442,3.347-5.842,3.434c-2.671,0.095-4.828-0.959-6.469-3.162c-1.287-1.745-1.977-3.946-2.073-6.603
	c-0.119-3.336,0.59-5.912,2.133-7.729c1.541-1.818,3.505-2.769,5.89-2.856c2.459-0.087,4.526,0.921,6.203,3.023l-0.101-2.79
	l4.926-0.176l0.638,17.847c0.085,2.351-0.048,4.111-0.393,5.285c-0.345,1.176-0.856,2.106-1.53,2.792
	c-0.677,0.688-1.593,1.239-2.747,1.655c-1.152,0.415-2.622,0.657-4.407,0.719c-3.372,0.122-5.785-0.372-7.236-1.475
	c-1.453-1.106-2.211-2.543-2.273-4.317C563.533,994.841,563.533,994.629,563.536,994.379z M567.821,982.541
	c0.076,2.111,0.541,3.64,1.394,4.591c0.85,0.951,1.877,1.405,3.075,1.364c1.286-0.049,2.356-0.589,3.206-1.624
	c0.85-1.038,1.239-2.543,1.168-4.516c-0.073-2.06-0.551-3.575-1.437-4.543c-0.884-0.97-1.975-1.429-3.274-1.383
	c-1.26,0.044-2.283,0.574-3.068,1.581C568.103,979.023,567.748,980.531,567.821,982.541z M591.086,964.638l0.329,10.096
	c1.635-2.041,3.632-3.1,5.99-3.176c1.212-0.041,2.312,0.147,3.302,0.565c0.989,0.418,1.741,0.97,2.258,1.651
	c0.516,0.685,0.878,1.449,1.086,2.29c0.21,0.842,0.343,2.157,0.402,3.942l0.381,11.669l-5.262,0.174l-0.345-10.51
	c-0.068-2.083-0.212-3.404-0.429-3.961c-0.218-0.557-0.587-0.989-1.104-1.304c-0.516-0.315-1.155-0.459-1.915-0.435
	c-0.875,0.03-1.649,0.266-2.321,0.715c-0.673,0.445-1.154,1.103-1.445,1.969c-0.291,0.864-0.41,2.136-0.353,3.807l0.326,9.966
	l-5.265,0.174l-0.897-27.462L591.086,964.638z M617.726,970.924l-0.003,4.198l-3.599-0.003l-0.006,8.02
	c-0.003,1.625,0.03,2.57,0.1,2.839c0.067,0.271,0.223,0.491,0.467,0.668c0.242,0.174,0.54,0.261,0.888,0.261
	c0.489,0,1.193-0.169,2.119-0.503l0.446,4.086c-1.225,0.525-2.611,0.783-4.16,0.783c-0.951,0-1.807-0.16-2.568-0.481
	c-0.763-0.318-1.32-0.731-1.677-1.236c-0.355-0.508-0.603-1.193-0.738-2.054c-0.112-0.615-0.169-1.851-0.166-3.711l0.008-8.678
	l-2.418-0.003l0.006-4.197l2.415,0.003l0.005-3.953l5.287-3.071l-0.005,7.029L617.726,970.924z M621.078,983.485l5.053-1.744
	c0.405,0.967,0.995,1.652,1.767,2.051c0.771,0.397,1.766,0.486,2.983,0.26c1.339-0.242,2.301-0.673,2.888-1.288
	c0.391-0.429,0.535-0.932,0.429-1.508c-0.073-0.393-0.255-0.695-0.548-0.91c-0.302-0.199-0.921-0.321-1.858-0.364
	c-4.348-0.158-7.149-0.514-8.406-1.073c-1.741-0.774-2.785-2.1-3.13-3.98c-0.31-1.698,0.1-3.244,1.228-4.645
	c1.128-1.4,3.101-2.358,5.915-2.872c2.679-0.489,4.749-0.419,6.211,0.217c1.464,0.633,2.597,1.761,3.402,3.377l-4.723,1.798
	c-0.347-0.726-0.85-1.236-1.507-1.535c-0.658-0.299-1.53-0.35-2.609-0.152c-1.367,0.25-2.307,0.619-2.829,1.108
	c-0.345,0.342-0.475,0.728-0.397,1.16c0.069,0.367,0.297,0.649,0.688,0.845c0.53,0.258,2.23,0.449,5.105,0.571
	c2.874,0.122,4.942,0.538,6.2,1.248c1.252,0.722,2.027,1.91,2.328,3.555c0.328,1.796-0.139,3.475-1.402,5.04
	c-1.263,1.565-3.363,2.614-6.303,3.152c-2.665,0.489-4.874,0.334-6.627-0.465C623.183,986.536,621.896,985.254,621.078,983.485z
	 M706.711,968.368l-5.73,1.891l-4.236-5.173l-10.427,3.442l-0.196,6.637l-5.589,1.845l1.549-29.443l5.57-1.843L706.711,968.368z
	 M693.605,961.247l-6.792-8.493l-0.327,10.843L693.605,961.247z M726.288,959.941l-4.885,1.967l-3.796-9.423
	c-0.801-1.991-1.426-3.238-1.869-3.741c-0.445-0.503-0.968-0.821-1.567-0.954c-0.601-0.135-1.231-0.07-1.891,0.196
	c-0.845,0.34-1.51,0.878-1.997,1.611c-0.486,0.734-0.698,1.533-0.638,2.399c0.057,0.867,0.503,2.331,1.335,4.394l3.365,8.362
	l-4.885,1.964l-7.433-18.461l4.538-1.826l1.092,2.712c0.768-2.737,2.377-4.595,4.823-5.581c1.078-0.432,2.141-0.636,3.189-0.606
	c1.049,0.027,1.924,0.253,2.625,0.668c0.701,0.418,1.296,0.975,1.783,1.668c0.489,0.693,1.018,1.752,1.592,3.176L726.288,959.941z
	 M748.11,950.666l-4.423,2.09l-1.25-2.643c-0.247,1.375-0.753,2.551-1.516,3.526c-0.761,0.973-1.652,1.701-2.668,2.181
	c-2.068,0.976-4.233,0.981-6.493,0.008c-2.261-0.967-4.097-2.945-5.505-5.929c-1.439-3.051-1.817-5.708-1.133-7.971
	c0.685-2.266,2.122-3.916,4.314-4.951c2.011-0.95,4.146-0.937,6.404,0.041l-4.224-8.947l4.759-2.249L748.11,950.666z
	 M730.967,947.281c0.908,1.92,1.829,3.187,2.766,3.792c1.355,0.88,2.722,0.995,4.099,0.345c1.095-0.518,1.807-1.423,2.135-2.719
	c0.329-1.296,0.055-2.869-0.82-4.722c-0.976-2.068-2.052-3.38-3.228-3.937c-1.173-0.557-2.345-0.56-3.508-0.011
	c-1.13,0.532-1.864,1.43-2.203,2.687C729.872,943.974,730.125,945.496,730.967,947.281z M780.615,922.321l4.223-3.402
	c1.266,1.334,2.549,2.084,3.844,2.247c1.296,0.166,2.65-0.214,4.06-1.144c1.494-0.98,2.41-2.035,2.752-3.165
	c0.343-1.128,0.234-2.116-0.32-2.961c-0.356-0.544-0.82-0.899-1.388-1.073c-0.57-0.169-1.345-0.136-2.323,0.104
	c-0.666,0.168-2.122,0.649-4.368,1.437c-2.891,1.019-5.132,1.407-6.725,1.168c-2.239-0.337-3.956-1.413-5.151-3.231
	c-0.769-1.168-1.155-2.481-1.163-3.934c-0.005-1.453,0.44-2.858,1.336-4.209c0.9-1.352,2.231-2.608,3.994-3.771
	c2.883-1.891,5.466-2.687,7.755-2.38c2.284,0.305,4.16,1.489,5.618,3.548l-4.502,3.252c-0.972-1.049-1.956-1.62-2.947-1.707
	c-0.994-0.087-2.141,0.297-3.448,1.155c-1.348,0.886-2.219,1.856-2.616,2.91c-0.258,0.676-0.19,1.314,0.201,1.907
	c0.356,0.544,0.891,0.859,1.603,0.943c0.908,0.106,2.665-0.315,5.271-1.266c2.603-0.948,4.636-1.494,6.089-1.635
	c1.453-0.142,2.812,0.082,4.07,0.665c1.26,0.584,2.366,1.603,3.319,3.054c0.864,1.315,1.31,2.788,1.335,4.418
	c0.024,1.628-0.448,3.16-1.419,4.597c-0.969,1.438-2.45,2.812-4.444,4.122c-2.902,1.91-5.573,2.703-8.01,2.385
	C784.82,926.034,782.606,924.69,780.615,922.321z M813.101,902.801l4.738-2.424c0.606,1.945,0.625,3.757,0.058,5.433
	c-0.568,1.677-1.731,3.165-3.484,4.47c-2.779,2.065-5.507,2.687-8.191,1.864c-2.133-0.671-4.024-2.116-5.67-4.331
	c-1.969-2.646-2.817-5.235-2.549-7.762c0.269-2.527,1.462-4.578,3.576-6.151c2.377-1.766,4.836-2.377,7.376-1.829
	c2.54,0.549,4.983,2.464,7.33,5.747l-10.588,7.871c0.962,1.233,2.029,1.953,3.198,2.165c1.172,0.212,2.241-0.043,3.214-0.766
	c0.663-0.492,1.085-1.087,1.266-1.782C813.561,904.61,813.468,903.776,813.101,902.801z M810.167,898.35
	c-0.94-1.201-1.946-1.894-3.021-2.084c-1.076-0.191-2.043,0.035-2.907,0.677c-0.921,0.687-1.434,1.587-1.535,2.706
	c-0.103,1.122,0.281,2.252,1.147,3.399L810.167,898.35z M825.363,901.533l-17.25-21.385l4.099-3.307l17.25,21.385L825.363,901.533z
	 M819.319,881.03l2.222-1.9l-0.975-1.138c-1.087-1.274-1.764-2.34-2.029-3.198c-0.266-0.859-0.204-1.793,0.185-2.809
	c0.391-1.016,1.14-2,2.252-2.948c1.138-0.975,2.399-1.758,3.784-2.35l1.847,3.255c-0.766,0.391-1.445,0.839-2.032,1.342
	c-0.582,0.497-0.88,0.986-0.899,1.472c-0.022,0.486,0.299,1.114,0.956,1.883l0.913,1.068l2.991-2.559l2.693,3.148l-2.991,2.56
	l10.243,11.976l-4.002,3.423l-10.243-11.976l-2.222,1.899L819.319,881.03z M834.172,857.373l7.183-7.154
	c1.622-1.613,2.981-2.72,4.076-3.317c1.478-0.802,3.051-1.176,4.722-1.13c1.668,0.049,3.336,0.483,4.999,1.301
	c1.663,0.823,3.404,2.144,5.219,3.969c1.595,1.603,2.771,3.182,3.529,4.736c0.923,1.902,1.369,3.742,1.339,5.518
	c-0.021,1.342-0.427,2.777-1.214,4.304c-0.595,1.138-1.617,2.429-3.07,3.874l-7.396,7.368L834.172,857.373z M841.382,856.754
	l12.84,12.894l2.934-2.924c1.098-1.092,1.828-1.945,2.193-2.554c0.477-0.793,0.738-1.59,0.779-2.388
	c0.044-0.798-0.239-1.769-0.842-2.904c-0.6-1.136-1.651-2.459-3.151-3.965c-1.5-1.502-2.782-2.526-3.85-3.066
	c-1.068-0.541-2.065-0.8-2.994-0.777c-0.926,0.024-1.837,0.326-2.731,0.897c-0.674,0.423-1.809,1.432-3.413,3.027L841.382,856.754z
	 M875.683,844.401l4.146-3.331c0.989,1.783,1.375,3.551,1.158,5.306c-0.217,1.758-1.051,3.45-2.505,5.086
	c-2.301,2.584-4.849,3.744-7.645,3.48c-2.225-0.223-4.369-1.255-6.431-3.089c-2.461-2.195-3.817-4.556-4.067-7.085
	c-0.247-2.53,0.505-4.78,2.257-6.749c1.97-2.212,4.252-3.307,6.852-3.285c2.598,0.022,5.38,1.404,8.344,4.143l-8.772,9.855
	c1.19,1.011,2.38,1.5,3.567,1.47c1.19-0.027,2.187-0.494,2.994-1.399c0.546-0.616,0.84-1.285,0.877-2.002
	C876.495,846.08,876.237,845.281,875.683,844.401z M871.907,840.638c-1.163-0.986-2.291-1.462-3.383-1.429
	c-1.09,0.032-1.992,0.448-2.706,1.252c-0.766,0.859-1.084,1.845-0.959,2.961c0.128,1.117,0.731,2.149,1.812,3.095L871.907,840.638z
	 M877.68,821.858l3.249,2.66l-2.278,2.782l6.208,5.081c1.258,1.03,2.01,1.604,2.263,1.721c0.251,0.116,0.522,0.135,0.813,0.057
	c0.288-0.076,0.544-0.253,0.767-0.522c0.307-0.378,0.625-1.03,0.948-1.958l3.448,2.239c-0.37,1.279-1.046,2.518-2.027,3.716
	c-0.601,0.736-1.266,1.299-1.994,1.684c-0.731,0.388-1.402,0.562-2.022,0.516c-0.616-0.043-1.301-0.288-2.056-0.725
	c-0.544-0.301-1.538-1.041-2.978-2.223l-6.716-5.494l-1.53,1.872l-3.249-2.66l1.533-1.871l-3.062-2.503l0.968-6.037l5.438,4.45
	L877.68,821.858z M897.3,817.943l3.855-3.665c1.133,1.695,1.665,3.427,1.595,5.193c-0.068,1.768-0.761,3.526-2.073,5.273
	c-2.079,2.769-4.521,4.138-7.325,4.108c-2.239-0.038-4.458-0.886-6.667-2.543c-2.639-1.981-4.187-4.222-4.643-6.722
	c-0.459-2.502,0.103-4.806,1.687-6.914c1.777-2.366,3.961-3.649,6.554-3.841c2.591-0.196,5.477,0.948,8.659,3.432l-7.923,10.55
	c1.271,0.91,2.499,1.298,3.681,1.171c1.181-0.127,2.136-0.676,2.863-1.646c0.495-0.661,0.731-1.348,0.709-2.068
	C898.251,819.548,897.927,818.774,897.3,817.943z M893.224,814.508c-1.241-0.885-2.404-1.266-3.488-1.144
	c-1.084,0.122-1.95,0.614-2.594,1.472c-0.69,0.921-0.926,1.932-0.707,3.032c0.22,1.103,0.908,2.081,2.062,2.931L893.224,814.508z
	 M911.23,808.997l-2.973,4.347l-16.429-11.232l2.76-4.04l2.337,1.598c-0.633-1.446-0.935-2.565-0.907-3.355
	c0.027-0.791,0.28-1.538,0.758-2.239c0.676-0.992,1.603-1.758,2.776-2.301l2.872,3.937c-0.975,0.407-1.679,0.927-2.108,1.554
	c-0.416,0.608-0.601,1.241-0.554,1.893c0.046,0.652,0.423,1.397,1.135,2.239c0.709,0.842,2.464,2.217,5.258,4.13L911.23,808.997z
	 M899.514,790.511l2.495-4.162l2.331,1.396c-0.919-2.575-0.761-4.894,0.47-6.95c0.655-1.092,1.448-1.908,2.38-2.443
	c0.932-0.532,2.008-0.785,3.228-0.752c-0.461-1.296-0.657-2.516-0.589-3.651c0.071-1.138,0.4-2.201,0.992-3.187
	c0.749-1.253,1.64-2.163,2.67-2.726c1.029-0.562,2.165-0.763,3.407-0.6c0.916,0.125,2.187,0.676,3.818,1.652l10.916,6.537
	l-2.706,4.517l-9.759-5.847c-1.693-1.013-2.88-1.513-3.559-1.496c-0.894,0.032-1.601,0.484-2.12,1.352
	c-0.381,0.631-0.544,1.342-0.492,2.13c0.052,0.788,0.378,1.53,0.976,2.223c0.594,0.693,1.698,1.519,3.306,2.483l8.2,4.91
	l-2.706,4.521l-9.357-5.607c-1.66-0.994-2.782-1.554-3.361-1.684c-0.579-0.128-1.087-0.092-1.524,0.103
	c-0.437,0.198-0.832,0.584-1.177,1.163c-0.418,0.698-0.606,1.437-0.565,2.22c0.041,0.779,0.345,1.502,0.908,2.168
	c0.562,0.665,1.663,1.489,3.303,2.472l8.298,4.967l-2.706,4.519L899.514,790.511z M914.491,760.795l-4.309-2.271l2.454-4.66
	l4.312,2.271L914.491,760.795z M934.49,771.326l-17.61-9.273l2.453-4.659l17.611,9.273L934.49,771.326z M947.016,745.039
	l-2.258,4.757l-9.178-4.35c-1.94-0.921-3.244-1.415-3.912-1.483c-0.665-0.065-1.266,0.054-1.798,0.361
	c-0.532,0.307-0.951,0.782-1.255,1.426c-0.391,0.823-0.516,1.669-0.375,2.538c0.142,0.87,0.527,1.604,1.157,2.198
	c0.628,0.598,1.949,1.373,3.958,2.324l8.145,3.863l-2.257,4.757l-17.984-8.526l2.095-4.421l2.644,1.253
	c-1.288-2.532-1.369-4.991-0.24-7.371c0.498-1.051,1.142-1.921,1.935-2.611c0.788-0.69,1.584-1.12,2.383-1.286
	c0.799-0.169,1.611-0.163,2.44,0.014c0.827,0.179,1.935,0.598,3.323,1.255L947.016,745.039z M937.832,731.087l-2.605,4.097
	c-1.579-1.225-2.549-2.619-2.907-4.184c-0.361-1.562-0.052-3.543,0.926-5.936c0.889-2.177,1.807-3.69,2.755-4.543
	c0.951-0.852,1.911-1.336,2.881-1.448c0.967-0.109,2.51,0.269,4.627,1.133l5.67,2.375c1.62,0.662,2.845,1.073,3.679,1.231
	c0.834,0.157,1.777,0.201,2.831,0.132l-1.97,4.823c-0.377-0.005-0.921-0.043-1.632-0.12c-0.321-0.035-0.535-0.057-0.644-0.06
	c0.47,1.163,0.715,2.301,0.731,3.415c0.02,1.114-0.193,2.209-0.633,3.285c-0.775,1.896-1.899,3.182-3.375,3.855
	c-1.475,0.671-2.999,0.687-4.572,0.043c-1.041-0.424-1.869-1.051-2.481-1.882c-0.611-0.829-0.954-1.783-1.019-2.856
	c-0.068-1.074,0.082-2.518,0.446-4.342c0.503-2.453,0.75-4.195,0.736-5.224l-0.484-0.199c-0.937-0.383-1.701-0.427-2.288-0.125
	c-0.59,0.299-1.144,1.092-1.668,2.375c-0.357,0.866-0.462,1.614-0.318,2.239C936.659,729.796,937.099,730.435,937.832,731.087z
	 M944.451,726.178c-0.046,0.709-0.201,1.799-0.464,3.272c-0.264,1.473-0.343,2.472-0.234,3.002c0.19,0.82,0.633,1.372,1.326,1.654
	c0.685,0.28,1.377,0.266,2.081-0.041c0.706-0.304,1.22-0.85,1.54-1.638c0.359-0.877,0.413-1.834,0.16-2.869
	c-0.198-0.768-0.578-1.378-1.138-1.821c-0.364-0.299-1.13-0.685-2.298-1.163L944.451,726.178z M941.647,705.115l3.95,1.421
	l-1.22,3.388l7.548,2.717c1.527,0.551,2.429,0.839,2.706,0.864c0.274,0.027,0.538-0.043,0.786-0.215
	c0.247-0.171,0.429-0.418,0.546-0.749c0.166-0.457,0.247-1.179,0.242-2.162l3.997,0.959c0.078,1.331-0.144,2.725-0.669,4.181
	c-0.32,0.894-0.761,1.647-1.32,2.255c-0.557,0.608-1.133,0.994-1.731,1.16c-0.598,0.163-1.324,0.163-2.182,0
	c-0.614-0.1-1.796-0.467-3.549-1.097l-8.164-2.94l-0.817,2.274l-3.951-1.421l0.818-2.274l-3.719-1.342l-1.1-6.012l6.61,2.381
	L941.647,705.115z M940.377,700.944l-4.679-1.367l1.475-5.056l4.679,1.366L940.377,700.944z M962.073,707.272l-19.105-5.573
	l1.473-5.056l19.108,5.575L962.073,707.272z M955.756,695.571c-1.685-0.475-3.198-1.347-4.538-2.622
	c-1.342-1.274-2.214-2.79-2.616-4.542c-0.4-1.755-0.337-3.573,0.192-5.448c0.818-2.899,2.427-5.007,4.831-6.33
	c2.404-1.321,5.042-1.576,7.917-0.766c2.899,0.818,5.037,2.429,6.415,4.836c1.38,2.407,1.67,5.029,0.87,7.869
	c-0.495,1.755-1.364,3.317-2.606,4.686c-1.244,1.369-2.747,2.253-4.516,2.652C959.939,696.301,957.956,696.191,955.756,695.571z
	 M957.489,690.452c1.899,0.536,3.483,0.495,4.746-0.122c1.264-0.616,2.084-1.586,2.456-2.909c0.373-1.323,0.179-2.575-0.578-3.754
	c-0.755-1.182-2.097-2.043-4.021-2.584c-1.877-0.53-3.445-0.489-4.709,0.122c-1.263,0.61-2.081,1.578-2.453,2.901
	c-0.373,1.323-0.182,2.576,0.576,3.763C954.261,689.056,955.589,689.917,957.489,690.452z M974.447,656.124l-0.578,5.235
	l-10.096-1.114c-2.135-0.236-3.529-0.277-4.181-0.122c-0.652,0.155-1.179,0.462-1.581,0.929c-0.405,0.465-0.644,1.052-0.722,1.758
	c-0.101,0.907,0.059,1.747,0.475,2.522c0.418,0.777,1.021,1.341,1.812,1.697c0.791,0.359,2.291,0.661,4.502,0.905l8.958,0.986
	l-0.576,5.236l-19.785-2.182l0.539-4.863l2.904,0.323c-2.043-1.972-2.92-4.271-2.632-6.893c0.127-1.152,0.453-2.188,0.973-3.098
	c0.521-0.909,1.133-1.573,1.834-1.994c0.698-0.418,1.469-0.679,2.309-0.782c0.843-0.1,2.027-0.068,3.554,0.101L974.447,656.124z
	 M104.767,673.196l-15.888,3.801l1.47,6.148c1.06,4.428,2.059,7.319,3.005,8.673c0.94,1.352,2.138,2.303,3.589,2.853
	c1.451,0.551,3.002,0.624,4.657,0.231c2.038-0.489,3.575-1.484,4.616-2.991c1.041-1.505,1.508-3.209,1.402-5.111
	c-0.065-1.402-0.584-4.127-1.552-8.175L104.767,673.196z"/>
<path d="M1010.405,546.729l15.839-1.64c0.451,3.583,1.791,6.42,4.016,8.515c2.225,2.092,4.791,3.137,7.695,3.137
	c3.317,0,6.126-1.348,8.427-4.042c2.299-2.698,3.451-6.763,3.451-12.191c0-5.091-1.141-8.909-3.423-11.457
	c-2.282-2.543-5.251-3.817-8.908-3.817c-4.565,0-8.653,2.018-12.275,6.053l-12.897-1.867l8.145-43.16h42.03v14.875h-29.981
	l-2.489,14.088c3.544-1.774,7.165-2.66,10.86-2.66c7.053,0,13.03,2.565,17.935,7.695c4.901,5.129,7.352,11.785,7.352,19.969
	c0,6.825-1.981,12.916-5.94,18.271c-5.392,7.317-12.877,10.974-22.457,10.974c-7.656,0-13.897-2.054-18.725-6.167
	C1014.233,559.194,1011.347,553.668,1010.405,546.729 M106.489,544.903l15.386-1.698c0.378,3.13,1.359,5.451,2.943,6.957
	c1.583,1.508,3.676,2.263,6.278,2.263c3.282,0,6.073-1.508,8.371-4.526c2.301-3.016,3.771-9.276,4.415-18.779
	c-3.999,4.638-8.996,6.958-14.992,6.958c-6.526,0-12.153-2.519-16.885-7.553c-4.733-5.034-7.1-11.584-7.1-19.656
	c0-8.409,2.497-15.188,7.496-20.336c4.996-5.149,11.359-7.722,19.091-7.722c8.409,0,15.309,3.253,20.703,9.757
	c5.393,6.507,8.088,17.206,8.088,32.103c0,15.16-2.809,26.099-8.428,32.809c-5.618,6.713-12.935,10.069-21.947,10.069
	c-6.489,0-11.729-1.725-15.726-5.175C110.183,556.922,107.619,551.766,106.489,544.903z M142.466,510.17
	c0-5.13-1.179-9.108-3.535-11.936c-2.358-2.828-5.083-4.244-8.175-4.244c-2.942,0-5.385,1.16-7.325,3.48
	c-1.943,2.317-2.912,6.118-2.912,11.397c0,5.355,1.054,9.286,3.164,11.794c2.114,2.508,4.753,3.763,7.92,3.763
	c3.057,0,5.629-1.207,7.722-3.622C141.42,518.391,142.466,514.846,142.466,510.17z M91.658,564.078H75.762v-59.905
	c-5.806,5.431-12.653,9.446-20.531,12.049v-14.424c4.146-1.359,8.653-3.934,13.519-7.724c4.863-3.79,8.202-8.211,10.012-13.264
	h12.897V564.078z M955.017,501.022v-14.764h54.362v11.539c-4.488,4.412-9.052,10.748-13.69,19.007
	c-4.638,8.26-8.175,17.038-10.607,26.332c-2.431,9.297-3.63,17.603-3.592,24.919h-15.328c0.263-11.465,2.63-23.156,7.096-35.072
	c4.469-11.917,10.439-22.572,17.904-31.962H955.017z"/>
<path d="M133.254,313.232l1.682,7.14l-9.018,2.572l-1.771-7.188L133.254,313.232z M164.562,246.784l0.644,7.447l-5.687,0.834
	l0.568,5.89l-9.294,1.263l-0.788-7.257l5.673-0.902l-0.467-5.936L164.562,246.784z M169.12,303.614
	c-1.126,1.54-2.318,2.209-3.576,1.997c-0.866-0.12-2.189-0.832-3.975-2.136l-37.183-27.183l-2.532-12.025
	c-0.054-0.038,3.901,2.891,11.865,8.792c7.466,5.619,13.476,10.05,18.027,13.3c6.363,4.573,9.876,6.863,10.533,6.87
	c2.567-0.968,16.15-19.801,17.341-21.365l-7.524-2.967l-1.339-8.938l13.72,5.526c9.723-12.773,14.471-17.169,27.026-30.293
	l-13.017-4.92l-1.586-8.588l20.542,7.3l10.43-10.901l-13.019-4.923l-1.487-8.689l20.445,7.401l6.7-7.001
	c-2.978-2.847-6.828-4.659-11.552-5.437l-1.954-9.729c5.312,0.502,9.626,2.339,12.941,5.51c1.937,1.853,4.008,4.868,6.217,9.05
	c0.559,1.065,1.165,2.196,1.825,3.398c0.103,0.231,0.595,1.364,1.478,3.396l-10.661,11.142l-4.096-1.676l0.863,5.056l-13.133,13.729
	l-4.097-1.673l0.797,5.124l-29.142,33.221l-3.475-1.325l1.103,4.439C181.299,287.404,175.267,295.207,169.12,303.614z
	 M362.288,86.238L362.8,96.94l-20.635,18.447l25.106,1.99c2.802,1.181,4.435,2.236,4.899,3.162c0.285,0.568,0.418,1.402,0.4,2.497
	l-0.014,2.424l0.1,7.647l-49.768,24.985c1.125,3.136,1.815,6.73,2.07,10.783c0.256,4.054-0.029,7.588-0.861,10.604
	c-0.829,3.013-2.059,4.986-3.692,5.915c-2.461,1.399-7.779,0.263-15.946-3.412c2.71-0.386,4.978-1.098,6.804-2.136
	c3.07-1.747,5.173-4.486,6.311-8.213c0.973-3.249,1.138-6.852,0.503-10.803l-6.434,3.658l-4.771,2.426
	c-1.869,0.642-3.706,0.617-5.507-0.073c-1.801-0.69-3.225-1.951-4.268-3.785c-3.507-6.17-4.339-13.327-2.488-21.466
	c0.475-2.122,1.505-3.63,3.08-4.527c2.824-1.605,6.553-0.744,11.194,2.587c3.619,2.564,6.64,5.529,9.063,8.887
	c15.311-8.709,29.16-15.006,46.005-23.088l-20.816,0.453l-0.661,2.41l-5.129-1.81l-1.563-0.45c-0.97-0.302-1.641-0.827-2.016-1.573
	c-0.272-0.541-0.432-1.359-0.487-2.456l-0.092-1.358l-0.635-10.525L362.288,86.238z M312.097,151.865
	c-4.151-5.689-7.613-7.748-10.378-6.173c-1.327,0.752-2.098,2.09-2.31,3.999c-0.212,1.912,0.079,3.568,0.875,4.964
	c0.562,0.991,1.356,1.578,2.377,1.768l1.204-0.109l1.592-0.674L312.097,151.865z M277.766,160.525
	c6.553,2.07,11.501,5.369,14.845,9.892c3.263,4.418,5.42,10.129,6.48,17.13c1.187,8.197,0.182,13.478-3.019,15.842
	c-1.228,0.907-3.23,1.198-6.001,0.875c-3.065-0.402-6.114-1.127-9.143-2.176l-1.301-0.475c2.646-0.541,4.956-1.538,6.928-2.994
	c2.994-2.211,4.757-5.638,5.287-10.275c0.481-3.852,0.135-7.906-1.03-12.164c-2.043-1.532-4.211-2.823-6.51-3.872
	c-2.298-1.051-4.624-1.934-6.974-2.654L277.766,160.525z M245.911,173.19c9.012-2.461,15.859-0.891,20.538,4.712
	c1.863,2.238,3.412,5.11,4.643,8.62l2.611,7.374l-16.676,13.918l-5.165-9.691l13.595-11.349c-2.445-2.931-5.056-4.719-7.835-5.366
	c-2.44-0.538-5.542-0.283-9.308,0.769L245.911,173.19z M952.664,354.552l6.972,2.7l-1.734,5.516l5.54,2.083l-2.978,8.86
	l-6.776-2.534l1.733-5.513l-5.58-2.168L952.664,354.552z M980.732,354.962c3.744-1.875,6.751-4.876,9.028-9.006l9.797,1.391
	c-2.184,4.834-5.36,8.292-9.52,10.376c-2.457,1.231-6.002,2.152-10.637,2.766c-0.938,0.149-2.209,0.34-3.815,0.576
	c-0.25,0.018-1.483,0.1-3.694,0.247c-5.697-11.374-9.788-19.703-16.195-30.473l4.823-4.371l-5.871-0.339l-8.876-21.994l14.486-3.45
	c1.062-0.114,2.404,0.31,4.026,1.268l14.403,8.097l1.891-1.736l9.409,2.847l-21.879,19.515
	C973.638,339.971,975.996,345.505,980.732,354.962z M831.673,204.516l7.507-0.212l0.53,5.721l5.912-0.25l0.763,9.349l-7.262,0.291
	l-0.527-5.721l-5.985,0.187L831.673,204.516z M879.513,249.793l7.469,0.826l-0.266,5.738l5.891,0.568l-0.533,9.365l-7.232-0.715
	l0.267-5.738l-5.952-0.638L879.513,249.793z M916.379,202.269l-0.012,10.914l10.828,0.074l-0.639,3.483H911.85l0.584-14.264
	L916.379,202.269z M826.429,182.23l-7.814,4.725l-7.73,4.357c-10.46,0.443-18.602-1.358-24.433-5.403
	c-3.766-2.614-5.828-6.035-6.189-10.259c-0.362-4.225,0.853-8.344,3.64-12.359c3-4.32,8.963-9.226,17.894-14.728
	c-4.108,3.63-7.233,6.985-9.372,10.066c-5.727,8.255-5.205,14.728,1.565,19.428c2.693,1.869,6.062,3.046,10.104,3.53
	c2.375,0.261,4.849,0.267,7.426,0.016c1.554-0.226,3.317-0.674,5.289-1.339c-1.179-4.163-4.357-8.04-9.534-11.634l-0.628-0.435
	l9.672-6.064c13.944,10.488,25.288,18.716,38.294,29.763l1.703-8.102l8.998-0.859l-4.588,14.153
	c7.588,6.447,11.753,10.417,19.103,17.597l3.868-7.104l9.037-0.231l-7.168,12.941c7.107,6.943,11.023,11.225,17.845,18.874
	l4.347-6.822l9.031,0.391l-8.039,12.416c11.327,12.697,18.924,23.583,29.99,38.474l-2.111-20.681l-2.486-0.234l0.895-5.363
	l0.174-1.619c0.128-1.006,0.53-1.758,1.201-2.258c0.484-0.361,1.261-0.66,2.334-0.902l1.32-0.329l10.259-2.448l27.596,24.667
	l-10.452,2.356l-20.846-19.037l0.644,27.72c-0.677,2.962-1.432,4.753-2.267,5.372c-0.51,0.38-1.306,0.655-2.391,0.826l-2.388,0.407
	l-7.515,1.422l-35.316-44.96l1.962-3.157l-4.568,0.236l-20.317-21.167l1.742-3.284l-4.54,0.548l-9.818-9.59l-11.907-10.113
	l1.51-3.396l-4.494,0.861L826.429,182.23z M699.208,72.693l-6.545,3.461l-2.986-4.947l-5.322,2.747l-4.622-8.086l6.428-3.388
	l2.872,4.814l5.295-2.649L699.208,72.693z M780.324,105.205l-6.762,2.562l-3.741-8.71l7.08-2.701L780.324,105.205z M714.083,137.7
	l7.072-2.531l2.277,5.275l5.543-2.072l3.627,8.65l-6.811,2.527l-2.276-5.273l-5.632,2.035L714.083,137.7z M696.866,58.614
	l-6.417,3.339l-4.871-7.89l6.52-3.728L696.866,58.614z M628.186,62.641l-6.137,4.272l-3.553-4.513l-4.826,3.429l-5.73-7.428
	l5.901-4.301l3.608,4.466l4.912-3.363L628.186,62.641z M526.67,93.194c-1.907-0.071-3.13-0.663-3.665-1.774
	c-0.388-0.753-0.549-2.188-0.479-4.301l1.456-44.082l8.493-8.442c0-0.065-0.188,4.646-0.562,14.128
	c-0.424,8.939-0.693,16.084-0.805,21.436c-0.184,7.505-0.095,11.518,0.271,12.044c0.902,0.612,2.369,1.039,4.399,1.272
	c6.911,0.594,15.138-0.012,22.392,0.23c2.135-5.792,5.184-10.348,9.147-13.668c4.26-3.575,9.205-5.271,14.834-5.083
	c4.548,0.152,6.719,3.358,6.509,9.615c-0.043,1.272-0.19,3.05-0.44,5.339c-0.253,2.284-0.394,3.88-0.424,4.784
	c11.383,0.378,16.071,1.277,26.997,2.691l-1.179-8.004l7.083-5.615l2.052,14.649c14.294,1.851,22.392,3.883,37.782,7.961
	l-1.981-13.775l6.751-5.536l3.535,21.515l14.489,3.839l-1.978-13.775l6.844-5.513l3.439,21.488l9.321,2.473l0.117-0.438
	c0.623-4.581,0.323-8.678-0.891-12.292l7.529-6.423c2.176,4.839,2.659,9.539,1.448,14.101c-0.453,1.718-1.405,3.872-2.85,6.469
	c9.106,2.411,15.826,5.569,24.593,9.159l0.919-8.037l8.286-3.607l-1.784,14.685c8.62,3.53,16.825,7.06,25.379,10.733
	c1.65-3.847,2.013-8.083,1.09-12.707l8.387-5.254c1.418,5.165,1.223,9.854-0.587,14.071c-1.201,2.798-3.317,5.789-6.347,8.97
	l-5.205,5.475c-10.507-4.512-20.856-8.912-31.427-13.242l0.377-3.697l-4.002,2.214l-8.955-3.668l-6.719-2.719l-6.941-2.035
	l-1.161-4.567l-2.855,3.502l-14.351-3.8l-0.56-4.41l-3.961,3.211l-18.274-4.844l-0.514-4.396l-4.103,3.173
	c-17.736-4.702-23.486-5.996-41.195-8.289l-0.585-3.671l-3.298,3.17c-10.11-1.309-16.679-2.212-26.601-2.544l-4.193,8.205
	l-22.626-14.726l-3.671,5.504L526.67,93.194z M510.426,53.585l-4.635,5.551l-7.534-5.755l4.844-5.828L510.426,53.585z
	 M473.807,90.854l-3.269-7.401l5.331-7.298l5.879,13.574c9.712-1.38,18.425-2.304,28.177-3.356
	c-0.448-4.161-2.209-8.028-5.284-11.606l4.73-8.694c3.771,3.806,5.901,7.988,6.393,12.546c0.328,3.032-0.049,6.676-1.125,10.933
	l-1.853,7.325c-11.793,1.27-22.788,2.536-34.492,4.197l-1.543-3.385l-2.334,3.935l-25.447,4.497l-1.915,8.93l-2.13,8.613
	c-6.847,7.917-13.742,12.612-20.686,14.081c-4.483,0.949-8.387,0.106-11.707-2.529c-3.323-2.633-5.491-6.342-6.505-11.123
	c-1.087-5.146-0.571-12.851,1.548-23.124c-0.174,5.48,0.128,10.053,0.902,13.723c2.082,9.827,7.154,13.889,15.217,12.18
	c3.206-0.676,6.371-2.323,9.496-4.933c1.818-1.552,3.522-3.347,5.106-5.393c0.896-1.288,1.782-2.877,2.648-4.771
	c-3.839-1.997-8.838-2.339-15.002-1.035l-0.747,0.158l2.214-11.199C445.004,95.975,456.966,93.245,473.807,90.854z M470.849,115.994
	l4.825-5.757l4.629,3.401l3.736-4.588l7.501,5.632l-4.602,5.624l-4.629-3.401l-3.831,4.602L470.849,115.994z M581.712,91.123
	l0.443-13.253c0.081-2.511-1.356-3.814-4.312-3.912c-4.869-0.163-8.89,2.065-12.068,6.683L581.712,91.123z M905.02,202.373
	l-7.472-0.277l-0.128-5.744l-5.917-0.16l-0.111-9.381l7.3,0.112l0.199,5.741l5.947,0.263L905.02,202.373z M974.204,314.105
	l-12.15-6.77c-1.179-0.668-2.374-0.809-3.583-0.421l6.249,15.611L974.204,314.105z M141.842,306.776
	c8.1-0.441,15.484,1.263,22.156,5.107c3.279,1.888,7.741,6.186,13.387,12.889c0.864,8.762-0.277,15.874-3.423,21.333
	c-2.16,3.752-5.328,6.077-9.498,6.98c-4.173,0.902-8.246,0.209-12.22-2.082c-3.307-1.907-7.295-5.453-11.957-10.637
	c-1.609-1.771-3.421-4.026-5.434-6.768c5.295,4.559,9.422,7.689,12.384,9.395c3.713,2.139,7.11,3.051,10.194,2.731
	c3.393-0.391,6.07-2.285,8.023-5.678c1.399-2.427,2.233-5.58,2.499-9.469c0.373-3.532,0.182-6.854-0.573-9.97
	c-2.959-1.707-6.464-3.101-10.515-4.187c-2.894-0.747-6.76-1.046-11.599-0.897L141.842,306.776z"/>
<path d="M223.376,323.045l0.358,2.847l-3.591,0.753l-0.389-2.872L223.376,323.045z M239.294,313.712l-2.904-1.128l-0.446-3.502
	l5.293,2.1c3.163-4.12,5.863-7.575,9.522-11.831l-5.141-1.565l-0.736-3.315l8.107,2.287l3.912-4.548l-5.141-1.568l-0.701-3.358
	l8.07,2.333l2.515-2.923c-1.201-1.032-2.727-1.636-4.578-1.807l-0.896-3.752c2.079,0.05,3.784,0.65,5.118,1.799
	c0.782,0.671,1.63,1.793,2.548,3.366c0.234,0.402,0.487,0.829,0.758,1.279c0.043,0.087,0.253,0.517,0.625,1.288l-3.999,4.652
	l-1.622-0.544l0.407,1.954l-4.928,5.73l-1.62-0.541l0.38,1.981c-4.065,4.728-6.82,8.33-10.54,13.176l-1.342-0.503l0.394,1.739
	c-2.084,2.714-4.047,5.214-5.994,7.986c0.576,0.543,1.744,2.038,3.505,4.48c-0.027,3.461-0.761,6.219-2.201,8.271
	c-0.989,1.407-2.31,2.23-3.958,2.463c-1.65,0.234-3.195-0.155-4.638-1.168c-1.864-1.307-3.866-3.749-6.007-7.325
	c1.861,1.94,3.328,3.288,4.401,4.04c1.315,0.924,2.576,1.367,3.779,1.332c1.361-0.035,2.488-0.69,3.382-1.965
	c1.391-1.978,1.905-4.501,1.543-7.572c-2.315-1.624-5.094-2.499-8.338-2.627l-0.962-3.53c1.995,0.022,3.999,0.478,6.015,1.369
	C235.089,319.121,236.982,316.724,239.294,313.712z M272.74,257.692l-0.144,2.826l-3.709,0.1l0.147-2.961L272.74,257.692z
	 M280.29,267.785c-1.12-1.155-2.578-1.899-4.38-2.234l-0.565-3.804c2.073,0.231,3.722,0.978,4.948,2.247
	c0.815,0.839,1.554,2.04,2.217,3.6l1.141,2.678c-2.869,2.779-5.641,5.43-8.402,8.286c0.747,1.041,1.377,2.301,1.891,3.788
	c0.514,1.483,0.772,2.836,0.769,4.058c-0.003,1.223-0.263,2.104-0.783,2.641c-0.782,0.81-2.904,1.003-6.36,0.581
	c0.98-0.459,1.763-0.989,2.342-1.589c0.978-1.011,1.489-2.28,1.533-3.804c0.032-1.326-0.277-2.692-0.924-4.095l-2.049,2.117
	l-1.549,1.461c-0.638,0.457-1.331,0.661-2.081,0.615c-0.753-0.049-1.418-0.353-2-0.919c-1.959-1.896-3.01-4.471-3.152-7.727
	c-0.041-0.847,0.193-1.532,0.693-2.051c0.899-0.927,2.394-1.041,4.488-0.334c1.627,0.535,3.073,1.291,4.331,2.263
	C275.087,272.788,277.526,270.46,280.29,267.785z M274.536,249.902l5.591,1.727l-1.272-5.646l2.076,0.283l1.296,7.678l-7.586-1.977
	L274.536,249.902z M311.394,237.478l0.546,4.14c-1.141,0.604-2.046,1.179-2.712,1.726c-1.848,1.518-2.92,3.415-3.219,5.686
	c-0.128,1.022-0.53,1.81-1.207,2.364c-3.834,3.145-7.006,5.858-10.642,9.153c0.68,1.086,1.225,2.388,1.641,3.901
	c0.415,1.516,0.584,2.883,0.502,4.103c-0.082,1.22-0.399,2.081-0.953,2.584c-0.834,0.755-2.964,0.812-6.385,0.166
	c1.008-0.393,1.823-0.872,2.442-1.434c1.041-0.946,1.633-2.176,1.777-3.695c0.117-1.321-0.1-2.703-0.655-4.144l-2.182,1.975
	l-1.64,1.359c-0.669,0.413-1.375,0.573-2.12,0.475c-0.745-0.095-1.391-0.446-1.935-1.046c-1.831-2.019-2.712-4.657-2.641-7.917
	c0.016-0.848,0.293-1.516,0.826-2c0.956-0.867,2.456-0.88,4.499-0.043c1.589,0.644,2.983,1.489,4.176,2.543
	c3.897-3.533,7.568-6.626,11.773-10.077c0.114-0.777,0.388-1.507,0.823-2.198c-1.34,0.003-2.725,0.133-4.152,0.389
	c-1.798,0.342-3.064,0.818-3.798,1.418l-0.546,0.622l0.158-1.901c0.133-1.438,0.53-2.429,1.195-2.975
	c0.451-0.37,1.54-0.747,3.268-1.136c1.212-0.28,2.415-0.568,3.614-0.867c1.195-0.299,2.076-0.532,2.643-0.698
	c1-0.32,1.867-0.679,2.606-1.078c0.739-0.397,1.369-0.777,1.891-1.138L311.394,237.478z M299.252,235.285l-0.432,2.799l-3.635-0.209
	l0.345-2.904L299.252,235.285z M378.945,208.438l1.07-2.682l2.2,0.639l0.867-2.149l3.493,1.117l-1.105,2.651l-2.098-0.644
	l-0.918,2.13L378.945,208.438z M364,210.742c-0.666,0.365-1.206,0.411-1.614,0.137c-0.288-0.179-0.635-0.644-1.043-1.389
	l-8.496-15.516l1.179-4.648c-0.013-0.022,0.883,1.643,2.69,4.994c1.679,3.171,3.046,5.694,4.1,7.564
	c1.467,2.63,2.318,3.997,2.548,4.102c0.435,0.027,1.022-0.125,1.763-0.459c3.763-1.817,7.967-4.334,12.149-6.396
	c0.288-0.731,0.722-1.382,1.301-1.956c-1.307-0.301-2.685-0.489-4.133-0.565c-1.828-0.07-3.17,0.101-4.021,0.522l-0.674,0.484
	l0.587-1.818c0.453-1.369,1.065-2.247,1.839-2.628c0.521-0.258,1.668-0.38,3.44-0.364c1.244,0.003,2.484-0.005,3.714-0.025
	c1.233-0.022,2.146-0.049,2.736-0.082c1.046-0.084,1.972-0.236,2.782-0.457c0.81-0.219,1.508-0.445,2.097-0.681l0.454-0.158
	l-0.407,4.157c-1.247,0.331-2.258,0.685-3.032,1.067c-2.143,1.057-3.619,2.66-4.426,4.807c-0.356,0.964-0.927,1.641-1.709,2.027
	C372.877,205.903,368.809,208.108,364,210.742z M428.377,182.826l-2.796,0.926l-2.051,0.576c-0.777,0.108-1.486-0.032-2.13-0.421
	c-0.641-0.391-1.089-0.969-1.345-1.741c-0.855-2.587-0.592-5.358,0.791-8.308c0.358-0.769,0.883-1.266,1.567-1.494
	c0.902-0.297,1.94,0.002,3.116,0.899c2.014,1.53,3.473,3.654,4.372,6.377c1.029,3.116,0.959,6.281-0.218,9.501
	c-0.649,1.787-1.453,2.839-2.415,3.157c-1.07,0.353-3.04-0.457-5.906-2.434c1.081,0.048,2.021-0.06,2.815-0.32
	c1.334-0.443,2.374-1.329,3.121-2.66C427.94,185.723,428.298,184.37,428.377,182.826z M489.761,166.803l-17.448,3.092
	c-1.161,0.206-1.981,0.293-2.461,0.26c-0.775-0.098-1.5-0.484-2.171-1.154c-0.672-0.671-1.108-1.568-1.307-2.695
	c-0.413-2.331-0.078-4.651,1.003-6.957c-0.09,1.152-0.065,2.133,0.079,2.945c0.334,1.875,1.087,3.013,2.266,3.418
	c0.22,0.078,0.595,0.135,1.13,0.171l2.649-0.391l15.036-2.663l-0.201-1.788l-0.212-0.766l-0.853,1.622l-3.497,0.619
	c-1.184,0.209-2.068,0.008-2.651-0.608c-0.459-0.479-0.755-1.106-0.894-1.878c-0.231-1.304-0.06-2.733,0.514-4.284
	c0.864-2.385,1.986-3.703,3.372-3.948c0.424-0.076,0.81-0.041,1.154,0.109c1.245,0.549,2.353,1.586,3.331,3.11
	c0.859,1.364,1.421,2.794,1.684,4.288c0.277,1.557,0.126,3.937-0.451,7.135L489.761,166.803z M486.91,146.481l-1.795,2.28
	l-1.929-1.206l-1.437,1.802l-3.043-2.046l1.807-2.223l1.828,1.185l1.5-1.774L486.91,146.481z M483.737,141.969l-1.763,2.233
	l-3.067-1.964l1.744-2.347L483.737,141.969z M493.806,145.108l3.581,4.627l2.205-5.349l1.535,1.423l-3.353,7.026l-5.072-5.977
	L493.806,145.108z M513.156,160.04c3.214-0.293,5.87-0.55,9.174-0.717l2.973-4.417c0.537-0.84,1.418-2.024,2.632-3.554
	c0.711-0.741,1.47-1.136,2.28-1.177c1.304-0.065,2.564,0.869,3.784,2.804c1.22,1.935,1.867,3.673,1.945,5.214
	c0.036,0.706-0.209,1.646-0.733,2.817c-0.253,0.503-0.829,1.646-1.728,3.428l-0.187,0.397l-9.482-3.616l-1.239,2.225
	c-3.102,0.157-5.965,0.426-9.082,0.711c-0.218,1.788-0.807,3.619-1.769,5.488c-1.149,2.312-2.437,3.535-3.861,3.665
	c-0.717,0.066-1.676-0.402-2.874-1.405c-0.84-0.713-1.588-1.485-2.245-2.319c-0.308,0.754-0.685,1.498-1.13,2.232
	c-0.984,1.627-1.978,2.502-2.984,2.627c-1.119,0.139-2.89-1.041-5.322-3.534c1.054,0.255,1.995,0.333,2.823,0.23
	c1.396-0.173,2.589-0.842,3.578-2.002c0.855-1.013,1.472-2.268,1.848-3.768l-2.921,0.364l-2.122,0.169
	c-0.785-0.047-1.453-0.32-2.008-0.829c-0.557-0.508-0.882-1.166-0.983-1.97c-0.337-2.703,0.459-5.369,2.391-7.996
	c0.502-0.685,1.11-1.071,1.825-1.16c0.943-0.117,1.905,0.377,2.886,1.486c1.676,1.891,2.692,4.26,3.048,7.104
	c0.299,2.412,0,4.734-0.898,6.968c0.967,0.316,1.916,0.43,2.846,0.344c1.475-0.132,2.785-0.913,3.926-2.333
	c0.937-1.144,1.66-2.546,2.171-4.206c-0.668-1.619-1.744-3.224-3.225-4.823l2.043-2.918
	C511.757,156.959,512.629,158.447,513.156,160.04z M589.142,163.003c-0.758-0.052-1.236-0.302-1.434-0.755
	c-0.144-0.305-0.188-0.884-0.131-1.728l1.193-17.652l3.497-3.281c0-0.028-0.139,1.858-0.421,5.657
	c-0.293,3.575-0.497,6.436-0.617,8.579c-0.179,3.005-0.199,4.616-0.06,4.831c0.35,0.255,0.927,0.443,1.731,0.562
	c2.28,0.261,4.731,0.207,7.363,0.485l3.619-3.907c0.663-0.748,1.714-1.78,3.151-3.103c0.818-0.625,1.63-0.897,2.435-0.812
	c1.296,0.136,2.399,1.255,3.304,3.355c0.907,2.1,1.279,3.918,1.119,5.45c-0.077,0.706-0.461,1.594-1.16,2.673
	c-0.329,0.457-1.074,1.497-2.239,3.119l-0.247,0.364l-8.808-5.041l-1.568,2.009C596.268,163.43,592.792,163.249,589.142,163.003z
	 M774.791,235.351l2.91-0.329l0.478,2.209l2.301-0.283l0.702,3.586l-2.812,0.353l-0.475-2.211l-2.331,0.26L774.791,235.351z
	 M784.477,230.422c0.916-1.32,1.361-2.896,1.339-4.727l3.622-1.291c0.19,2.057-0.223,3.82-1.242,5.29
	c-0.603,0.867-1.635,1.823-3.102,2.872c-0.293,0.221-0.69,0.516-1.193,0.886c-0.084,0.052-0.489,0.304-1.217,0.752
	c-3.44-2.386-6.586-4.655-10.073-6.874l-3.035,1.864l-4.871-9.459l-2.331,1.078c-2.526-1.607-4.945-2.976-7.566-4.474
	c-0.823,0.981-1.891,1.905-3.203,2.769c-1.312,0.867-2.56,1.449-3.744,1.75c-1.187,0.299-2.102,0.263-2.752-0.105
	c-0.978-0.56-1.69-2.568-2.136-6.024c0.687,0.84,1.394,1.465,2.119,1.881c1.222,0.698,2.575,0.88,4.064,0.546
	c1.293-0.299,2.541-0.935,3.738-1.908l-2.556-1.462l-1.799-1.14c-0.6-0.506-0.97-1.127-1.108-1.867
	c-0.139-0.739-0.009-1.458,0.393-2.162c1.356-2.366,3.592-4.021,6.711-4.964c0.812-0.247,1.533-0.19,2.16,0.165
	c1.119,0.641,1.597,2.065,1.432,4.265c-0.117,1.712-0.492,3.297-1.122,4.758c2.985,1.708,5.391,3.095,8.386,5.001
	c1.862-1.483,3.793-2.374,5.795-2.668c2.154-0.321,4.179,0.119,6.07,1.326c1.526,0.97,1.643,2.472,0.353,4.502
	c-0.263,0.41-0.66,0.97-1.192,1.676c-0.533,0.707-0.891,1.204-1.076,1.497C778.7,226.311,781.239,228.176,784.477,230.422z
	 M772.003,225.067l2.737-4.296c0.516-0.815,0.279-1.537-0.715-2.17c-1.633-1.038-3.445-1.12-5.434-0.234L772.003,225.067z
	 M881.459,304.939l-2.858-0.484l0.185-2.239l-2.32-0.429l0.375-3.608l2.794,0.464l-0.179,2.184l2.29,0.453L881.459,304.939z
	 M883.902,299.994l-2.79-0.491l0.239-3.622l2.913,0.397L883.902,299.994z M851.83,289.147l1.644-2.644l3.527,0.206l-3.043,4.814
	c3.461,3.864,6.354,7.148,9.859,11.529l2.489-4.763l3.393-0.111l-3.747,7.544l3.749,4.684l2.489-4.763l3.429-0.068l-3.779,7.501
	l2.407,3.01c1.236-0.989,2.108-2.377,2.622-4.165l3.853-0.19c-0.432,2.033-1.337,3.6-2.712,4.7
	c-0.804,0.644-2.065,1.271-3.781,1.883c-0.437,0.155-0.903,0.326-1.397,0.511c-0.095,0.025-0.554,0.152-1.38,0.375l-3.833-4.79
	l0.834-1.492l-1.996,0.038l-4.723-5.902l0.832-1.491l-2.019,0.008c-3.891-4.863-6.92-8.235-10.992-12.781l0.742-1.225l-1.783,0.065
	c-2.441-2.726-4.562-5.183-7.092-7.755l-3.32,1.19l-3.266,1.055c-4.059-0.66-7.081-1.999-9.058-4.01
	c-1.28-1.302-1.848-2.774-1.709-4.421c0.139-1.646,0.88-3.127,2.217-4.445c1.439-1.415,4.062-2.822,7.865-4.219
	c-1.821,1.065-3.247,2.103-4.274,3.111c-2.749,2.705-2.978,5.227-0.676,7.566c0.913,0.93,2.133,1.647,3.66,2.152
	c0.897,0.291,1.85,0.489,2.861,0.598c0.611,0.035,1.32,0.006,2.124-0.092c-0.179-1.688-1.149-3.426-2.907-5.214l-0.212-0.215
	l4.127-1.554C843.522,280.128,847.527,284.344,851.83,289.147z M875.377,324.843c-0.446-0.617-0.554-1.147-0.334-1.586
	c0.144-0.307,0.562-0.706,1.25-1.204l14.359-10.332l4.76,0.6c0.018-0.013-1.522,1.079-4.627,3.283
	c-2.943,2.054-5.279,3.72-7.007,4.993c-2.429,1.78-3.681,2.79-3.761,3.035c0.027,0.432,0.252,0.997,0.672,1.692
	c1.522,2.327,3.688,5.104,5.364,7.561c1.348-0.921,2.328-2.233,2.942-3.937l3.845,0.09c-0.578,2.005-1.597,3.502-3.054,4.496
	c-0.848,0.579-2.157,1.103-3.923,1.574c-0.446,0.119-0.924,0.253-1.432,0.399c-0.095,0.021-0.563,0.112-1.405,0.269L875.377,324.843
	z M898.976,327.149l-2.094,0.486c-1.394-1.562-3.057-2.434-4.988-2.619c0.934-0.456,1.921-0.621,2.953-0.5
	c-0.408-1.008-0.176-1.809,0.695-2.404c0.658-0.448,1.688-0.605,3.087-0.473c1.128,0.103,2.032,0.652,2.709,1.647
	c0.421,0.617,0.427,1.065,0.01,1.351c-0.328,0.222-0.842,0.351-1.538,0.379c-0.119-0.377-0.26-0.687-0.423-0.929
	c-0.598-0.878-1.435-1.35-2.508-1.416c-0.154,1.117,0.117,2.19,0.815,3.214C897.987,326.315,898.414,326.736,898.976,327.149z
	 M862.48,285.395l-2.907-0.354l0.06-2.247l-2.301-0.259l0.133-3.664l2.845,0.282l-0.032,2.25l2.314,0.299L862.48,285.395z
	 M797.741,229.09c1.837,3.206,1.924,5.939,0.261,8.194c-0.665,0.902-1.604,1.736-2.815,2.505l-2.54,1.625l-6.958-5.124l3.168-2.796
	l5.673,4.182c0.87-1.182,1.289-2.326,1.259-3.437c-0.041-0.971-0.448-2.125-1.223-3.464L797.741,229.09z M754.681,211.51
	c1.06-2.491,1.04-4.051-0.06-4.679c-0.527-0.302-1.133-0.304-1.82-0.008c-0.688,0.297-1.185,0.712-1.492,1.247
	c-0.217,0.38-0.253,0.761-0.103,1.141l0.283,0.383l0.554,0.408L754.681,211.51z M722.97,195.146
	c6.081,2.765,11.813,5.668,17.919,8.777l-4.627-7.765l-0.916,0.335l-0.654-2.024l-0.231-0.592c-0.135-0.373-0.133-0.702,0.014-0.99
	c0.106-0.206,0.323-0.443,0.658-0.703l0.404-0.334l3.163-2.57l13.78,2.73l-2.155,3.953l-11.642-2.328l5.54,9.52
	c0.296,1.147,0.356,1.899,0.173,2.252c-0.111,0.218-0.342,0.449-0.69,0.688l-0.766,0.541l-2.385,1.752
	c-6.566-3.346-12.699-6.485-19.329-9.5c-1.073,1.448-2.491,2.747-4.252,3.896c-2.144,1.443-3.866,1.867-5.167,1.274
	c-0.658-0.299-1.258-1.179-1.805-2.641c-0.396-1.087-0.671-2.179-0.826-3.279c0.706,0.802,1.505,1.405,2.391,1.807
	c1.351,0.614,2.872,0.584,4.568-0.085c1.38-0.532,2.703-1.393,3.969-2.583c0.218-1.737,0.079-3.665-0.416-5.785l3.217-1.527
	C723.276,191.774,723.298,193.502,722.97,195.146z M671.927,179.822l-2.307,2.67l-2.323,2.525c-3.858,1.426-7.143,1.75-9.857,0.973
	c-1.752-0.503-2.975-1.502-3.665-3.005c-0.69-1.503-0.777-3.155-0.258-4.961c0.555-1.94,2.144-4.455,4.766-7.544
	c-1.063,1.823-1.79,3.429-2.187,4.811c-1.06,3.711-0.016,6.015,3.137,6.917c1.253,0.359,2.668,0.383,4.247,0.073
	c0.924-0.192,1.85-0.489,2.782-0.891c0.552-0.269,1.152-0.646,1.804-1.128c-0.989-1.38-2.687-2.415-5.097-3.105l-0.29-0.084
	l2.826-3.386c8.494,2.432,14.22,4.073,22.559,7.114l-0.347-5.362l2.839-1.861l0.72,8.395l5.64,2.054l-0.35-5.363l2.893-1.839
	l0.668,8.373l3.621,1.321c0.541-1.486,0.565-3.127,0.076-4.921l3.192-2.162c0.688,1.961,0.729,3.771,0.125,5.426
	c-0.353,0.967-1.103,2.157-2.252,3.573c-0.293,0.359-0.603,0.747-0.93,1.16c-0.065,0.071-0.394,0.419-0.984,1.038l-5.762-2.1
	l-0.065-1.709l-1.684,1.071l-7.103-2.589l-0.064-1.706l-1.72,1.057C681.233,182.705,677.284,181.354,671.927,179.822z
	 M582.086,153.498c0.027-0.758-0.163-1.535-0.565-2.326c-0.404-0.793-0.967-1.204-1.687-1.228c-0.432-0.014-0.853,0.146-1.272,0.479
	c-0.652,0.543-0.99,1.124-1.011,1.741c-0.027,0.783,0.649,1.201,2.029,1.247L582.086,153.498z M582.182,158.461l0.135-1.752
	l-0.008-0.829l-1.171,1.407l-3.548-0.125c-1.204-0.041-2.024-0.422-2.47-1.144c-0.348-0.565-0.508-1.241-0.481-2.024
	c0.049-1.415,0.62-2.934,1.714-4.556c1.217-1.837,2.483-2.733,3.798-2.687c0.43,0.013,0.802,0.13,1.109,0.347
	c1.1,0.796,1.969,2.043,2.608,3.736c0.557,1.513,0.81,3.027,0.755,4.545c-0.055,1.581-0.695,3.874-1.926,6.882l-0.144,0.342
	l-17.799-0.464l-1.429,3.228l-1.492,3.092c-3.276,2.484-6.328,3.747-9.15,3.793c-1.823,0.027-3.282-0.576-4.377-1.812
	c-1.097-1.236-1.66-2.793-1.69-4.67c-0.032-2.019,0.758-4.888,2.369-8.605c-0.486,2.052-0.717,3.798-0.695,5.238
	c0.062,3.858,1.734,5.762,5.013,5.708c1.301-0.019,2.662-0.408,4.083-1.163c0.829-0.451,1.63-1.006,2.404-1.661
	c0.448-0.418,0.916-0.953,1.399-1.606c-1.348-1.032-3.274-1.53-5.778-1.489l-0.305,0.005l1.72-4.062
	C565.919,157.993,573.197,158.153,582.182,158.461z M582.043,142.068l-2.174,1.855l-2.589-2.578l2.174-1.913L582.043,142.068z
	 M610.584,162.334c0.174-0.575,0.283-1.048,0.32-1.421c0.166-1.573-0.119-2.986-0.853-4.241c-0.541-0.91-1.1-1.397-1.68-1.456
	c-0.34-0.035-0.779,0.152-1.32,0.559c-0.821,0.677-1.69,1.543-2.603,2.598l-0.258,0.283L610.584,162.334z M532.934,160.334
	c0.085-0.595,0.117-1.081,0.098-1.454c-0.078-1.581-0.578-2.931-1.497-4.058c-0.677-0.816-1.305-1.209-1.886-1.179
	c-0.342,0.016-0.747,0.269-1.217,0.758c-0.709,0.796-1.432,1.785-2.171,2.967l-0.212,0.321L532.934,160.334z M500.745,161.312
	c-0.647-2.627-1.597-3.864-2.856-3.709c-0.603,0.076-1.089,0.437-1.462,1.088c-0.372,0.649-0.519,1.279-0.443,1.893
	c0.055,0.432,0.253,0.759,0.601,0.976l0.457,0.135l0.687-0.008L500.745,161.312z M487.408,157.992
	c-0.133-0.747-0.478-1.467-1.038-2.157c-0.559-0.69-1.195-0.973-1.905-0.847c-0.424,0.073-0.807,0.317-1.144,0.731
	c-0.524,0.667-0.733,1.306-0.624,1.912c0.135,0.775,0.882,1.04,2.241,0.799L487.408,157.992z M426.79,179.003
	c-1.144-2.453-2.318-3.48-3.521-3.08c-0.576,0.19-0.984,0.642-1.222,1.348c-0.239,0.708-0.261,1.359-0.068,1.942
	c0.139,0.416,0.397,0.696,0.777,0.84l0.475,0.046l0.674-0.141L426.79,179.003z M329.373,224.868l5.681-1.022
	c1.28-0.237,2.057-0.155,2.334,0.247c0.234,0.34,0.418,1.103,0.554,2.288l0.133,1.032l0.473,3.443
	c-0.299,1.53-0.715,2.828-1.242,3.893c-1.087,2.198-2.424,3.839-4.01,4.928c-1.524,1.047-3.095,1.386-4.706,1.017
	c-1.611-0.366-2.945-1.321-4-2.858c-0.845-1.229-1.554-2.927-2.133-5.086c-0.313-1.174-0.563-2.353-0.744-3.538l0.249,0.668
	c0.598,1.587,1.261,2.913,1.99,3.972c2.285,3.328,4.732,4.099,7.343,2.307c1.136-0.779,2.146-1.994,3.027-3.644
	c0.878-1.649,1.296-3.167,1.25-4.556l-5.586,0.957c-0.35,0.052-0.864,0.087-1.543,0.1c-0.207-0.029-0.427-0.214-0.657-0.554
	c-0.364-0.53-0.587-1.448-0.666-2.749c-0.307-4.831,0.916-8.186,3.659-10.072c1.003-0.687,1.745-0.679,2.225,0.019
	c0.131,0.19,0.218,0.342,0.264,0.451c0.073,0.31,0.182,0.747,0.328,1.318l0.348,1.211c-0.799,0.16-1.516,0.457-2.152,0.894
	C330.102,220.695,329.294,222.472,329.373,224.868z M349.501,219.131l-6.515,4.015c-1.378,0.616-2.575,0.105-3.594-1.53
	c-0.731-1.168-1.549-3.75-2.459-7.744c-0.364-1.638-0.193-2.679,0.516-3.119c0.85-0.529,2.603-0.625,5.263-0.282
	c2.524,0.336,4.181,1.138,4.969,2.404c0.149,0.239,0.469,1.244,0.962,3.013l0.519,1.907L349.501,219.131z M346.542,216.11
	c-0.62-0.992-1.416-1.717-2.386-2.174c-1.252-0.597-2.492-0.742-3.717-0.431l-0.453,0.168c-0.397,0.25-0.47,0.983-0.214,2.203
	c0.242,1.033,0.524,1.81,0.85,2.335c0.478,0.763,1.242,0.818,2.296,0.16L346.542,216.11z M352.588,207.068
	c2.463,1.038,4.238,2.489,5.325,4.355c1.06,1.826,1.627,4.106,1.698,6.847c0.065,3.206-0.587,5.208-1.956,6.005
	c-0.525,0.307-1.323,0.345-2.391,0.119c-1.179-0.266-2.337-0.658-3.472-1.171l-0.486-0.23c1.062-0.112,2.015-0.414,2.858-0.905
	c1.279-0.745,2.138-2.002,2.573-3.773c0.375-1.467,0.44-3.046,0.19-4.73c-0.723-0.665-1.508-1.241-2.358-1.73
	c-0.848-0.489-1.715-0.916-2.601-1.277L352.588,207.068z M383.259,211.902l1.054-2.627l3.486,1.01l-0.994,2.749L383.259,211.902z
	 M289.531,259.171c-2.041-1.779-3.53-2.241-4.467-1.393c-0.451,0.41-0.641,0.986-0.573,1.731c0.068,0.744,0.31,1.348,0.725,1.804
	c0.293,0.323,0.645,0.476,1.052,0.454l0.453-0.152l0.557-0.402L289.531,259.171z M270.538,277.489
	c-2.152-1.641-3.668-2.008-4.549-1.097c-0.423,0.437-0.576,1.024-0.459,1.764c0.117,0.738,0.399,1.323,0.843,1.752
	c0.315,0.304,0.673,0.432,1.078,0.383l0.443-0.179l0.53-0.438L270.538,277.489z M244.953,322.056l-0.177-2.938l2.217-0.356
	l-0.172-2.312l3.628-0.544l0.206,2.839l-2.219,0.356l0.149,2.342L244.953,322.056z"/>
<path fill-rule="evenodd" clip-rule="evenodd" d="M1103.323,562.705c0,299.679-242.939,542.618-542.618,542.618
	S18.087,862.384,18.087,562.705c0-299.678,242.939-542.617,542.617-542.617S1103.323,263.027,1103.323,562.705 M1121.41,562.705
	c0,309.661-251.044,560.705-560.705,560.705S0,872.366,0,562.705S251.044,2,560.705,2S1121.41,253.043,1121.41,562.705z"/>
<path fill="#FCFAFA" d="M844.528,788.313c-1.729-0.618-7.592-3.762-10.792-4.831c-16.299-5.391-31.538-15.761-46.89-31.962
	c-16.932-17.878-21.053-25.61-27.093-50.586c-5.913-24.862-20.63-61.693-30.69-76.719c-11.205-17.047-37.662-35.25-68.564-47.625
	c-17.779-6.982-24.031-10.581-36.632-20.854c-11.74-9.735-16.82-17.245-21.69-32.695c-2.001-6.461-4.021-12.911-4.344-14.506
	c-0.622-3.274-5.068-6.137-9.526-6.137c-4.121,0-8.778,2.864-10.78,6.675c-2.443,4.543-3.288,33.329-1.383,50.262
	c1.269,11.33,1.581,12.389,5.714,18.527c6.026,9.2,20.956,24.341,29.112,29.732c3.796,2.54,13.433,7.52,21.265,11.12
	c7.83,3.597,14.28,6.659,14.506,6.774c0.31,0.421,5.39,30.478,5.815,34.596c0.31,3.078,0,3.712-1.807,3.712
	c-2.215,0-2.215,0.213-5.815-24.129c-0.733-5.081-1.904-9.946-2.54-10.794c-0.633-0.847-6.461-3.809-12.813-6.773
	c-6.448-2.864-14.701-6.985-18.301-9.102c-8.89-5.193-24.765-20.644-31.96-31.115c-2.201-3.226-5.294-7.325-7.128-9.577v29.343
	c0.252,2.033,0.727,2.347,1.624,2.347c3.909,0,14.604,4.445,19.586,8.042c12.897,9.425,12.275,27.84-1.171,35.982
	c-6.463,3.923-11.755,4.768-20.629,3.597c-0.367-0.053-3.019-0.307-4.809-0.477c-0.941-0.089-1.655-0.873-1.655-1.819v-0.505
	c0-0.537,0.206-0.999,0.605-1.359c0.399-0.359,0.881-0.515,1.415-0.458c0.906,0.097,1.948,0.224,3.158,0.384
	c10.387,1.382,14.62,0.747,20.107-2.964c5.828-4.021,8.157-8.776,7.634-15.872c-0.847-11.219-8.058-16.511-28.997-21.38
	c-14.505-3.385-23.606-6.561-23.606-8.142c0-1.804,1.806-3.385,8.465-7.406l6.676-4.112v-13.145c-0.423,0-3.923,0.535-7.735,1.057
	c-3.809,0.635-13.546,1.483-21.7,2.116c-8.143,0.537-16.497,1.483-18.613,2.019c-4.98,1.481-12.177,7.719-15.027,13.223
	c-4.347,8.254-2.863,20.219,4.643,37.675l2.016,4.769l9.848,0.212c8.99,0.098,10.895,0.521,25.286,5.925
	c8.469,3.176,16.413,6.352,17.469,6.985c0.522,0.296,0.919,0.538,1.255,0.706l0.72,0.297l6.79,2.894l0.818,0.353
	c3.964,1.508,14.024,3.499,28.193,5.488c27.416,3.91,32.483,5.926,36.615,14.182c3.924,7.831,3.698,16.185-0.633,23.803
	c-3.815,6.625-6.656,8.5-12.269,9.287c-4.536,0.636-8.36,0.598-12.964,0.535c-0.511-0.007-0.956-0.161-1.322-0.518
	c-0.366-0.357-0.552-0.797-0.552-1.308v-0.153c0-0.978,0.77-1.782,1.747-1.825c15.257-0.676,17.798-1.034,21.662-8.655
	c4.657-9.001,2.426-20.955-4.67-25.088c-4.122-2.328-14.28-4.445-32.271-6.662c-15.973-1.904-20.643-3.173-34.401-9.313
	c-19.361-8.577-32.174-12.598-40.949-12.911c-4.445-0.212-8.567-0.633-9.216-0.959c-1.157-0.734-9.721,7.944-14.067,14.394
	c-3.924,5.828-4.981,10.06-4.022,16.41c1.057,6.447,3.174,10.892,8.157,17.032c4.33,5.29,9.297,8.043,21.477,11.851l8.987,2.753
	l-7.931,5.081c-13.546,8.678-16.932,12.911-16.932,21.066c0,12.699,9.947,25.711,22.436,29.52c2.228,0.635,4.021,1.48,4.021,1.905
	c0,0.423-1.484,2.654-3.274,4.868c-1.807,2.329-4.559,6.252-6.04,8.89c-6.04,10.161-2.117,25.401,8.156,31.861
	c3.698,2.428,20.417,8.355,30.253,10.797c1.03,0.272,2.707,0.72,4.037,1.112v-17.974c-1.251-1.76-1.045-2.148,0.421-3.784
	c3.698-4.119,11.218-5.179,35.871-4.868c19.684,0.212,23.803,0,27.093-1.481c4.768-2.116,6.982-5.39,7.83-11.74
	c0.848-6.251-0.848-10.696-5.292-13.334c-6.35-3.809-62.228-6.774-85.088-4.445c-0.802,0.07-1.551,0.141-2.242,0.182l-3.865,0.311
	c-0.977,0.078-1.842-0.628-1.96-1.601c-0.118-0.974,0.554-1.867,1.522-2.023c0.617-0.1,1.25-0.188,1.962-0.297
	c1.904-0.297,4.485-0.579,7.873-0.919c16.817-1.693,74.277,0.75,81.262,3.499c7.989,3.186,9.949,8.745,9.949,16.608
	c0,9.849-2.315,14.084-9.949,17.567c-4.543,2.116-6.35,2.23-27.827,1.907l-23.072-0.212l-0.046,25.195
	c0.848,0.424,15.287,3.702,30.739,6.552c15.451,2.964,36.827,7.833,47.622,10.908l19.572,5.505l18.627,17.664
	c10.172,9.738,20.333,19.798,22.548,22.437c1.333,1.596,4.807,6.055,5.832,6.947c48.317-23.603,91.562-58.834,124.706-100.524
	 M555.297,599.655c-1.907-0.53-3.494-1.163-3.494-1.372c0-0.745,7.094-4.869,8.362-4.869c0.152,0,0.297,0.097,0.431,0.273v6.708
	C559.842,600.876,558.326,600.513,555.297,599.655z M619.86,751.634c-4.98,0.522-5.616,0.31-5.616-1.269
	c0-1.594,1.693-2.23,8.89-3.6c10.485-2.019,14.604-4.556,16.932-10.484c3.274-8.254,1.06-16.086-5.616-19.472
	c-3.061-1.693-12.274-3.274-23.917-4.233c-24.688-2.061-54.752-2.681-79.12-8.427c-0.499-0.117-0.885-0.401-1.148-0.84
	c-0.263-0.439-0.33-0.914-0.197-1.409l0.097-0.363c0.247-0.926,1.161-1.502,2.102-1.325c17.073,3.205,32.981,4.3,50.131,5.702
	c6.349,0.564,10.061,0.874,12.275,0.891l17.201,1.777l1.046,0.114h0.071c0.605,0.041,1.298,0.071,2.102,0.071
	c7.618,0,19.162,2.863,23.493,5.714c4.656,3.075,7.409,8.368,7.409,14.081C645.994,742.532,638.276,749.404,619.86,751.634z"/>
<path fill="#BA0001" d="M556.23,336.113c-3.176-7.094-7.512-23.602-9.098-34.503c-0.636-4.341-1.484-10.691-2.013-13.97
	c-0.954-6.879,0.103-11.957,4.763-23.069c9.098-21.694,23.387-39.267,31.644-39.156c4.126,0.106,9.843,6.879,15.239,17.991
	c5.189,10.582,5.292,13.014,1.375,17.461c-5.078,5.819-9.311,15.13-13.438,29.416c-2.013,7.094-4.659,15.242-5.822,17.991
	c-2.326,5.613-11.006,20.638-16.508,28.68l-3.494,5.084L556.23,336.113z M540.885,273.986c0-2.646-5.396-13.014-9.099-17.461
	c-2.967-3.703-3.6-5.292-3.6-9.629c0-6.984,1.587-12.171,4.657-15.027c3.385-3.173,7.779-1.339,15.554,3.176
	c11.845,6.88,10.783,4.472,3.07,18.304c-3.021,5.42-5.82,12.28-6.453,14.818C543.849,272.927,540.885,277.056,540.885,273.986z
	 M628.089,337.068c0,22.745-1.06,30.057-6.45,46.03c-6.77,19.684-12.81,29.421-25.933,41.907
	c-11.742,11.121-19.898,15.451-29.844,15.987c-5.717,0.312-9.102-0.209-13.869-1.905c-7.931-2.75-23.906-12.275-31.313-18.624
	c-7.732-6.562-16.087-17.147-20.969-26.784c-6.35-12.274-8.665-23.169-9.3-41.796c-0.633-18.739,0.834-30.478,7.183-59.59
	c2.44-10.892,4.769-24.863,5.293-31c0.535-6.251,1.381-12.486,2.016-14.081c3.274-8.89,23.184,4.445,32.271,21.703
	c4.035,7.715,4.771,10.891,8.045,33.23c2.342,16.608,4.133,24.765,8.056,36.828l2.638,8.254l-2.638,6.026
	c-0.142,0.34-0.283,0.676-0.424,1.03c-2.144,4.67-3.654,9.512-4.768,14.576c-2.991,13.618-1.723,28.122,3.641,40.935
	c2.682,6.366,6.195,12.332,10.344,17.78c-7.678-11.204-12.756-24.398-13.193-38.015c-0.482-13.278,3.075-26.936,10.185-38.113
	c0,0-0.068-0.041-0.182-0.125c2.372-4.165,5.108-8.566,8.042-12.884c9.64-13.971,15.763-28.251,19.375-44.125
	c4.855-21.376,11.43-32.709,22.748-39.156c6.349-3.711,10.68-4.233,12.063-1.483c0.535,1.06,0.535,6.45,0.114,12.376
	c-0.749,8.792-0.635,11.755,1.057,18.529C626.706,302.145,628.089,315.154,628.089,337.068z"/>
<path fill-rule="evenodd" clip-rule="evenodd" d="M922.955,563.193c0,200.064-162.186,362.25-362.25,362.25
	c-200.064,0-362.25-162.185-362.25-362.25s162.185-362.25,362.25-362.25C760.769,200.943,922.955,363.129,922.955,563.193
	 M939.715,563.193c0,209.32-169.69,379.009-379.01,379.009c-209.32,0-379.009-169.689-379.009-379.009
	s169.689-379.01,379.009-379.01C770.025,184.183,939.715,353.873,939.715,563.193z"/>
<path fill="#AD8002" d="M378.964,414.532c0-1.268-3.176-2.22-4.232-1.163c-0.424,0.53-1.163,2.011-1.587,3.279
	c-0.636,2.434-0.636,2.434,2.54,0.53C377.481,416.224,378.964,414.956,378.964,414.532 M463.418,445.223
	c-1.06-3.494-2.964-4.443-2.964-1.378c0,1.168,3.388,6.034,3.917,5.508C464.478,449.246,464.054,447.444,463.418,445.223z
	 M489.028,474.644c0-1.271-3.489-5.819-4.443-5.819c-0.53,0-2.54,1.056-4.339,2.428l-3.391,2.331l5.293,0.636
	c2.964,0.315,5.61,0.738,6.14,0.738C488.713,475.062,489.028,474.959,489.028,474.644z M489.132,463.213
	c-0.845-0.85-1.162-0.423-1.162,1.483c0,3.489,1.483,4.972,1.907,2.011C490.086,465.436,489.77,463.846,489.132,463.213z
	 M511.885,497.927c-0.948-2.011-2.008-3.703-2.326-3.703c-0.209,0-2.436,1.269-4.869,2.856l-4.336,2.964l5.605,0.845
	c3.176,0.424,5.925,1.057,6.246,1.272C513.583,503.638,513.472,501.312,511.885,497.927z M515.699,492.525
	c-0.318-2.646-0.744-3.383-1.377-2.429c-1.056,1.691-1.269,5.605-0.32,6.559C515.485,498.033,516.118,496.34,515.699,492.525z
	 M462.57,452.206c0-1.162-3.385-4.548-4.548-4.548c-1.378,0-4.977,3.176-4.977,4.445c0,0.424,2.116,0.848,4.763,0.848
	C460.454,452.95,462.57,452.63,462.57,452.206z M431.246,435.907l4.126-1.163l-2.219-2.22c-1.907-1.799-2.437-1.91-3.921-0.742
	c-2.116,1.696-4.126,5.293-2.958,5.293C426.692,437.075,428.92,436.545,431.246,435.907z M404.683,424.057
	c3.809-1.378,3.915-1.484,2.013-3.176c-2.646-2.438-4.023-2.22-5.931,0.529C397.7,425.749,398.439,426.173,404.683,424.057z
	 M381.081,410.827c0-1.483-3.809-4.553-4.548-3.703c-0.424,0.318,0,1.586,1.06,2.644
	C379.389,411.781,381.081,412.311,381.081,410.827z M354.519,408.39c0.103-0.842-1.06-2.749-2.54-4.124
	c-1.902-1.801-2.647-2.01-2.647-0.951c0,0.843,0.633,2.221,1.378,2.959c1.057,1.057,0.954,1.483-0.53,2.331
	c-1.06,0.636-1.907,2.223-1.907,3.706v2.749l3.07-2.54C353.141,411.146,354.519,409.345,354.519,408.39z M330.178,409.24
	c0.103-0.53-1.163-0.738-2.752-0.53c-2.331,0.209-3.068,0.954-3.279,3.385l-0.424,3.07l3.279-2.543
	C328.695,411.253,330.178,409.663,330.178,409.24z M304.25,415.269c0.424-0.948,0.424-2.008,0.103-2.325
	c-0.739-0.851-3.703,2.013-3.07,3.07C302.133,417.497,303.511,417.177,304.25,415.269z M558.877,569.118l-4.784-13.957l-0.041-0.124
	c-1.723-4.361-4.092-9.088-6.675-13.489c-3.203-5.448-6.744-10.387-9.876-13.563c-3.697-3.709-3.923-3.709-9.623-0.747
	c-6.776,3.599-17.258,3.388-25.626-0.523c-7.183-3.384-10.047-5.714-14.378-11.965c-2.12-3.062-5.831-5.929-12.813-9.95
	c-10.585-6.023-17.033-10.582-16.299-11.43c0.323-0.212,2.85,0.962,5.616,2.54c2.752,1.693,8.241,4.771,12.049,6.774l7.1,3.599
	l4.347-1.907c2.312-1.154,4.331-2.426,4.331-2.961c0-0.425-2.214-0.848-4.967-0.848c-6.886-0.098-13.334-3.173-20.531-10.047
	c-3.388-3.173-6.887-5.828-7.846-5.828c-3.174,0-26.656-11.316-25.596-12.275c0.31-0.424,11.527,3.923,22.745,8.677
	c4.657,2.019,5.504,1.905,9.199-1.157l3.176-2.651h-6.349c-6.971,0-12.898-2.218-19.247-7.198c-2.23-1.692-6.252-3.697-9.004-4.444
	c-6.349-1.693-6.773-3.697-0.521-2.753c4.007,0.636,4.868,0.324,7.295-2.214l2.864-2.965l-6.349,0.31
	c-8.58,0.538-12.501-0.31-17.991-3.907c-4.035-2.655-6.04-3.078-15.142-3.712c-5.828-0.312-11.006-1.157-11.639-1.793
	c-0.847-0.959,1.692-1.057,10.047-0.535c11.118,0.633,11.33,0.633,13.022-1.907c2.328-3.598,2.216-3.809-1.693-2.638
	c-5.926,1.696-14.28,1.157-18.836-1.171c-2.328-1.157-5.602-2.116-7.408-2.116c-1.693,0-3.176-0.424-3.176-1.057
	c0-0.524,0.847-1.059,2.018-1.059c1.679,0,5.39-3.91,5.39-5.714c0-0.313-1.693,0.212-3.711,1.057
	c-4.121,1.693-14.916,2.019-19.048,0.424c-1.68-0.635-4.333-0.733-6.874-0.098c-2.54,0.522-4.233,0.522-4.233,0
	c0-0.847,1.481-1.382,3.388-1.059c0.946,0.097,5.078-5.193,5.078-6.464c0-0.421-2.016,0.114-4.445,1.383
	c-3.385,1.793-6.672,2.428-13.021,2.54c-4.657,0.212-9.626,0.636-11.107,1.06c-2.426,0.733-2.426,0.521,0.636-2.019
	c1.806-1.481,3.597-3.698,3.923-4.869c0.522-2.116,0.421-2.214-1.696-0.633c-5.192,3.708-8.577,4.98-14.506,5.404
	c-3.711,0.31-7.718,1.369-9.947,2.749c-2.116,1.158-4.347,2.005-5.081,1.695c-0.747-0.326,0.424-1.272,2.541-2.23
	c2.23-0.946,4.656-3.062,5.602-4.869c2.651-5.179,1.807-5.714-2.739-1.693c-4.67,4.233-8.156,5.925-12.275,5.925
	c-1.383,0-3.812,0.962-5.293,2.117c-3.711,2.866-5.404,2.654-2.652-0.31c1.269-1.383,2.329-3.597,2.329-5.081
	c0-2.44-0.212-2.325-3.486,1.369c-3.6,4.021-6.887,6.14-9.751,6.14c-0.945,0-4.233,2.116-7.183,4.768
	c-6.999,6.138-9.213,6.138-2.538,0c4.233-3.923,4.967-5.191,4.967-8.677c0-2.231,0.959-5.925,2.116-8.254
	c1.158-2.328,2.116-4.235,2.116-4.347c0-0.098-1.06,0-2.217,0.323c-1.268,0.312-4.034,2.641-6.249,4.969
	c-2.216,2.44-6.352,5.502-9.102,6.884c-4.233,2.117-5.928,2.427-12.065,1.905c-6.35-0.536-7.508-0.323-10.892,2.005
	c-4.024,2.651-4.983,3.075-4.983,1.806c0-0.538,2.116-2.23,4.757-3.812c2.651-1.692,6.037-4.98,7.732-7.406
	c6.023-9.004,17.568-14.084,25.074-10.908c2.117,0.959,3.923,1.17,4.233,0.535c0.437-0.535,0.226-0.959-0.31-0.959
	c-1.581,0-7.621-6.026-7.621-7.621c0-3.809,15.777-6.871,21.067-4.021c1.255,0.635,2.217,0.747,2.217,0.326
	c-0.101-2.116-2.329-4.024-6.026-5.293l-4.035-1.383l5.193,0.424c2.961,0.212,6.673-0.212,8.677-1.06
	c4.98-2.116,10.909-1.79,15.761,0.636c2.342,1.171,4.233,2.116,4.348,2.116c0.111,0,0-0.945-0.31-2.116
	c-0.326-1.268-1.921-2.85-3.6-3.809c-1.693-0.847-3.075-1.692-3.075-1.793c0-0.112,5.39-0.212,11.965-0.212
	c11.528,0,12.164,0.1,15.975,3.062c4.556,3.388,6.024,2.866,3.712-1.269c-1.06-2.005-3.923-3.809-9.427-6.026
	c-5.081-2.117-6.985-3.288-5.602-3.499c1.272-0.212,5.39,1.171,9.3,2.863c5.094,2.328,8.79,3.274,12.699,3.274
	c8.691,0,11.867,1.06,17.046,5.616l4.755,4.236l-0.309-3.6c-0.324-3.288-1.158-4.136-9.102-8.89
	c-11.642-6.885-9.213-7.521,2.752-0.748c6.985,3.924,10.794,5.404,15.549,5.926c7.311,0.847,10.161,2.328,15.565,8.368l3.924,4.445
	l0.098-3.499c0-3.698-2.85-6.871-11.852-13.123c-4.757-3.274-6.237-5.081-4.121-5.081c0.521,0,5.293,3.287,10.582,7.409
	c7.198,5.502,10.895,7.618,14.182,8.042c7.407,1.172,16.185,7.944,18.627,14.506c1.579,4.024,3.271,3.599,3.271-0.959
	c0-3.274-1.057-4.869-7.618-11.642c-4.121-4.331-7.197-8.14-6.874-8.563c0.424-0.326,4.969,3.486,10.161,8.466
	c5.178,5.08,10.145,9.199,11.204,9.199c5.828,0,16.932,10.585,19.586,18.628c1.579,4.656,2.864,4.559,3.385-0.213
	c0.535-4.33-2.002-8.889-11.006-20.32c-2.964-3.697-5.081-6.871-4.755-7.197c0.195-0.31,3.371,3.176,6.985,7.735
	c3.597,4.542,8.029,10.044,9.836,12.274c1.804,2.329,5.178,4.967,7.618,6.026c7.083,3.075,14.492,12.177,16.608,20.431
	c0.649,2.752,1.595,4.966,2.018,4.966c0.323,0,1.269-1.692,1.807-3.695c1.056-3.499,0.831-4.348-3.078-11.43
	c-7.928-14.293-9.102-16.622-8.465-16.622c0.847,0,14.293,21.912,14.817,24.129c0.21,0.747,2.228,2.228,4.543,3.385
	c8.058,4.135,16.834,18.95,16.834,28.364c0,3.386,1.268,2.863,3.384-1.483c0.791-1.467,1.202-2.651,1.258-3.655
	c-1.454-4.401-1.228-3.822-4.078-10.851c-6.14-15.141-7.436-17.44-6.803-17.355c2.045,0.269,10.754,19.966,12.573,24.862
	c0.014,0.03,0.028,0.044,0.028,0.071c1.608,3.359,3.795,6.279,6.857,9.256c6.252,5.928,8.694,10.061,10.696,17.893
	c2.005,7.508,1.807,15.027-0.633,22.323l-2.12,6.251l3.499,3.176c4.037,3.681,8.623,9.426,12.362,15.479l0.057,0.098l2.089,3.556
	l3.103,5.279L558.877,569.118z"/>
<path d="M708.615,195.077c0.215-0.51,0.638-1.364,1.269-2.561c0.557-1.092,0.957-1.956,1.198-2.595
	c1.861-4.923,2.863-7.554,3.002-7.885c0.511-1.209,1.19-3.288,2.038-6.238l4.873-2.651l-1.266,5.097l-1.071,0.533l-0.176,0.513
	c-0.98,3.005-1.878,5.467-2.689,7.387c-0.796,1.883-1.709,3.478-2.744,4.787C712.302,192.42,710.824,193.624,708.615,195.077"/>
</svg>
